<svg height="27" width="110" xmlns="http://www.w3.org/2000/svg" xmlns:xlink="http://www.w3.org/1999/xlink"><mask id="a" fill="#fff"><path d="m0 0h109.407222v26.9532164h-109.407222z" fill="#fff" fill-rule="evenodd"/></mask><path d="m95.0705556 23.6486823h-80.7342106c-6.81742687.0243469-10.96011693-4.5519104-10.96011693-10.1664133 0-5.61450292 4.16777778-10.15345029 10.96011693-10.16631578h80.7342106c6.7923394.01286549 10.9594734 4.55181286 10.9594734 10.16631578 0 5.6145029-4.142047 10.1907602-10.9594734 10.1664133zm.039883-23.64885329h-80.8133333c-8.55298249-.01861264-14.29742694 6.12980842-14.29742694 13.50109499 0 7.3706433 5.73222222 13.4495906 14.31029244 13.452807h80.7876023c8.5774269-.0032164 14.3096489-6.0821637 14.3096489-13.452807 0-7.37128657-5.745731-13.51970763-14.2967834-13.50109499zm4.2546199 10.74273239c-.8716374 0-1.5792398-.7076023-1.5792398-1.57988304 0-.8722807.7076024-1.57923976 1.5792398-1.57923976.8729235 0 1.5792395.70695906 1.5792395 1.57923976 0 .87228074-.706316 1.57988304-1.5792395 1.57988304zm0-3.53222222c-1.0781287 0-1.9516959.87421053-1.9516959 1.95233918 0 1.07877194.8735672 1.95362574 1.9516959 1.95362574 1.0794155 0 1.9536255-.8748538 1.9536255-1.95362574 0-1.07812865-.87421-1.95233918-1.9536255-1.95233918zm-.0160819 1.80502924h-.2579532v-.62783626h.2309357c.3171345 0 .4734503.09649123.4734503.32228071 0 .2148538-.1447369.30555555-.4464328.30555555zm.9887134-.3377193c0-.41362573-.306199-.62269006-.9237426-.62269006h-.8478363v2.16333334h.5249123v-.88578948h.2579532l.414269.88578948h.5847364l-.4824557-.96619883c.2946197-.07526316.4721637-.29011696.4721637-.57444445zm-45.1263742 3.96836258c.2978362-.5191228.8459064-.7661404 1.3425146-.7693567.4966082.0032163 1.0433918.2502339 1.3418714.7693567.2431578.4226316.2540935.9166667.248304 1.6557895h-3.1848538c-.0057894-.7391228.0102924-1.2331579.2521638-1.6557895zm6.9377193 2.97c0-2.6168421-2.5267836-4.7846784-5.6292983-4.7846784-3.1025146 0-5.6183625 2.1208772-5.6183625 4.7370761 0 2.6161988 2.5158479 4.7377193 5.6183625 4.7377193 2.5756726 0 4.7492983-1.4685965 5.4131579-3.461462l-3.8030409.0019298s.0032164.0379532.0032164.5120468c0 1.5432163-1.015731 1.8854386-1.5785965 1.8854386-.5635088 0-1.5966082-.3422223-1.5966082-1.8854386 0-.4618714.0032164-1.7413451.0032164-1.7413451s7.1879532.0025731 7.1879532-.0012865zm7.9862573-4.6444444c-1.2621053.0360233-2.3119298.5763742-3.0420468 1.2730409-.0051462-.2090643 0-.887076 0-.887076l-3.7869591.0025731-.002573 8.4365497h3.7882456s-.0038597-5.181579-.0038597-5.5418129c0-.7352632.7725731-1.5528655 1.811462-1.5528655 1.0408187 0 1.7426316.8176023 1.7426316 1.5528655v5.5418129h3.7927485s-.0025731-3.99731 0-4.5904094c.0212281-3.3411696-2.8735088-4.2752047-4.2996491-4.2346783zm-31.0077778 0c-1.261462.0360233-2.3125731.5763742-3.0433333 1.2730409-.0038597-.2090643 0-.887076 0-.887076l-3.7901755.0025731.0025731 8.4365497h3.7876024s-.0038597-5.181579-.0038597-5.5418129c0-.7352632.7732164-1.5528655 1.8121053-1.5528655s1.7426316.8176023 1.7426316 1.5528655v5.5418129h3.791462s-.0032164-3.99731.0006432-4.5904094c.0212281-3.3411696-2.874152-4.2752047-4.2996491-4.2346783zm43.5580702 4.5653216s.0019298.9552631.0019298 1.4975438c0 1.3032749-.9025146 1.6442106-1.4962573 1.6442106-.6072515 0-1.4949708-.3409357-1.4949708-1.6442106v-1.5014035-1.5039766c0-1.3052046.8877193-1.6377777 1.4956141-1.6377777.5930994 0 1.4930409.3325731 1.4930409 1.6377777 0 .4496492.0006433 1.5078363.0006433 1.5078363zm-.0270175-3.7580117c-.6085381-.3428655-1.2524562-.6735088-2.1581872-.7532749-2.75-.241228-4.8509357 2.1903509-4.8509357 4.4180117 0 2.9359065 2.2649708 4.0236842 2.6097661 4.1832164 1.2839766.5976023 2.9307603.5995322 4.3903509-.3171345 0 .0784795.0025731.4882456.0025731.4882456h3.7721637v-12.6879532h-3.7657309zm12.114152 5.5199415c0 1.3450877-.7931579 1.8995907-1.5592982 1.8995907-.7642106 0-1.5631579-.554503-1.5631579-1.8995907 0-.5114035.0006432-1.8191813.0006432-1.8191813s.0025731-1.2479532.0025731-1.7593567c0-1.338655.7989474-1.8899415 1.5592983-1.8899415.7616374 0 1.5586549.5512865 1.5586549 1.8899415 0 .5107602-.0006432 1.4563743.004503 1.7953801 0 .0212281-.0032164 1.2762573-.0032164 1.7831579zm-1.5290643-6.5138012c-3.08 0-5.5765497 2.1215205-5.5765497 4.7377193 0 2.6161989 2.4965497 4.7370761 5.5765497 4.7370761 3.0793567 0 5.5765497-2.1208772 5.5765497-4.7370761 0-2.6161988-2.497193-4.7377193-5.5765497-4.7377193zm-66.8735673-1.08391808h3.824269v-2.59368422h-3.824269zm.0083626 10.09812868h3.8159064v-8.437193l-3.8159064-.0012866zm25.0278947-8.4217544v-1.2550293h-2.0668421v-1.70725142h-3.8191228l.0032164 1.70918132-2.0752047.0006432v1.2524562h2.0739181l-.0025731 8.4217544h3.8229825l-.0032164-8.4217544zm-31.1306432 4.5814035-5.4697661-8.8488889h-3.9522807l-.0012866 12.6892398h3.9284796v-8.8482456l5.4974269 8.8482456h3.9162573v-12.6892398h-3.9220468z" fill="#8c8c8c" fill-rule="evenodd" mask="url(#a)"/></svg>