<svg height="150" width="300" xmlns="http://www.w3.org/2000/svg" xmlns:xlink="http://www.w3.org/1999/xlink"><mask id="a" fill="#fff"><path d="m.59282231.49726702h35.13325209v32.90513828h-35.13325209z" fill="#fff" fill-rule="evenodd"/></mask><mask id="b" fill="#fff"><path d="m.0004461.41129019h87.2033633v53.23605831h-87.2033633z" fill="#fff" fill-rule="evenodd"/></mask><g fill="none" fill-rule="evenodd"><path d="m117.57747 59.0482232c3.596479 0 5.647304.6027113 7.300262 1.7610282 1.697568 1.1993834 2.593372 3.0002703 2.593372 5.5029112 0 4.4086097-4.149877 6.5597697-6.541903 7.162481v.0966271c4.547744.6510248 8.646983 3.3577904 8.646983 8.4162171 0 3.5486289-1.749411 6.0585168-4.645403 7.7072161-2.553585 1.4047159-5.750991 1.9059688-9.545198 1.9059688h-11.503189v-1.1559013c4.205337-.2995439 4.601999-.6534405 4.601999-6.1044146v-18.0281942c-.050638-5.4606368-.352052-5.8072864-4.304201-6.1056225v-1.1583169zm-4.898591 14.1703587h3.14918c4.797316 0 7.197782-2.2526184 7.197782-6.3568529 0-3.0038938-1.245445-6.3568528-7.150761-6.3568528-1.644518 0-2.345006.1497719-2.748902.3043752-.292975.0966271-.447299.2947126-.447299 1.2972183zm0 1.4578608v10.9152345c0 3.3553748.652261 4.504029 4.30179 4.4569233 4.19328 0 7.748767-2.1040543 7.748767-7.4149192 0-5.4558055-4.000375-7.9572386-9.150948-7.9572386zm34.290376 9.6637933c0 5.4509741.399073 5.8048708 4.501929 6.1044147v1.157109h-13.302031v-1.157109c4.20172-.2995439 4.601999-.6534406 4.601999-6.1044147v-18.0269863c0-5.4606369-.400279-5.8072865-4.401859-6.1068304v-1.1583169h12.701613c3.193789 0 6.048789.4529394 7.893446 1.7078834 1.995365 1.2525283 3.303505 3.5015231 3.303505 6.4051664 0 4.1573793-2.554791 7.1141674-6.605804 8.7628667.90545 1.5061743 2.952658 4.9642153 4.450086 7.1636888 1.798843 2.6584521 2.850177 4.0027761 4.202926 5.5077426 1.047717 1.2513204 1.944727 2.0557407 3.750804 2.5038487l-.104893.9554001h-.700487c-5.743758-.1546033-7.496785-1.9095923-9.393286-4.6574244-1.549271-2.2646968-3.65194-5.9643054-5.054121-8.3183822-.793323-1.2972184-1.592675-1.7984712-3.143152-1.7984712h-2.700675zm0-8.5128442h2.899609c2.050825 0 3.645912-.253646 5.002277-1.3539867 2.146073-1.703052 2.893581-4.152548 2.893581-6.6129146 0-5.2528887-3.800236-7.3545273-7.545011-7.3545273-1.701185 0-2.401672.1002506-2.804362.2500226-.296592.096627-.446094.3478574-.446094 1.351571zm59.483094-.9539507c0 10.418813-7.246008 17.4810434-16.792412 17.4810434-9.448746 0-16.143768-7.2228729-16.143768-16.6754152 0-8.4162172 5.896876-17.3783772 17.039572-17.3783772 8.6506 0 15.896608 6.7107495 15.896608 16.572749m-17.190279-14.9180106c-5.900493 0-10.90036 4.8567178-10.90036 14.2669858 0 9.6651219 5.049299 16.476122 12.34715 16.476122 5.996945 0 10.899153-4.6525931 10.899153-13.9686497 0-10.8186075-5.202417-16.7744581-12.345943-16.7744581m34.276511.2507473-1.549272.1980854c-2.248553.2983361-2.548762.7476519-1.855508 2.9555803l6.755305 21.3292162h.095247l7.994722-25.1339068h1.204453l9.042439 25.0855933h.107303c2.042386-6.3133707 4.9432-16.8771243 5.798012-20.4801059.695665-2.9024354.437654-3.5075624-1.802459-3.7563771l-1.450407-.1980854v-1.1583169h10.592916v1.1583169c-3.296271.4010023-3.643501.6027113-5.294047 5.1550537-.447299 1.254944-4.100445 12.7692663-8.294931 26.5386227h-1.356366l-8.991801-24.4889211-.10007.1026663-8.146635 24.3862548h-1.398564l-8.646983-26.8901036c-1.350338-4.1573793-2.099052-4.5040289-4.95164-4.8035728v-1.1583169h12.248286z" fill="#1a1919"/><path d="m31.0332896 33.4024053h-1.2948773l-21.69944274-26.38764293h-.10489229v12.76201923c0 5.2613436.20255064 7.9681092.40268996 9.5165578.25559961 1.7513655 1.59749759 2.4494961 4.90100207 2.6004758v1.1571091h-11.99630268v-1.1571091c2.75251848-.1014584 4.04498446-.8491103 4.30058407-2.6004758.19411103-1.5484486.40027864-4.2552142.40027864-9.5165578v-10.86208961c0-3.60781294-.049432-4.41344107-.95247026-5.56088744-.95608723-1.20059125-2.29798521-1.54724084-4.39703676-1.69822062v-1.15831691h7.28941164l21.04959275 25.24140438h.1000697v-11.9708852c0-5.25892787-.1953167-7.95482291-.3942504-9.51293429-.2531883-1.74894983-1.6095542-2.4482882-4.9022077-2.59926798v-1.15831691h11.99148v1.15831691c-2.7452845.10266625-4.0473957.85031815-4.2969671 2.59926798-.2037563 1.55811138-.3966616 4.25400642-.3966616 9.51293429z" fill="#1a1919" mask="url(#a)" transform="translate(263.830243 58.550594)"/><g fill="#fffffe"><path d="m29.9645532 19.6110956c.1639695.2693479.3773711.6159975.6787857 1.1172504.7897064 1.306881 2.0122442 6.2384847 3.5904512 7.8726899.8427553-.5725154 2.2991909-1.3092967 3.1262726-1.6076328-.1916997-.3200771-1.076653-1.837122-2.0616761-3.1270933-1.8952952-2.5207585-3.2552781-3.8662903-3.4083967-4.084909-.5124049-.0072471-1.3828904.0193254-1.9254367-.1703052m14.2232745 6.5653257c.3761655-2.5811504-.4822634-6.8653528-.9874343-7.9379132-.6414104-.1630581-1.3045226-.3889239-1.8506859-.6522326-.0699282.328532-.554603 2.0774818-.7149555 4.6513852-.0868075 1.3793513-.0506377 3.4785742.2037563 3.9387606.8150251-.0809252 2.1810363-.1099133 3.3493194 0m6.8585093 10.7542297c-.7306291-.6027113-1.6867163-.8672279-2.0532365-.6027113l.0132622.1244073c.0759565.8865533-.5775104 1.6668169-1.4624638 1.7465342-.8861591.0785095-1.6686315-.5821781-1.7421766-1.4663157v-.0688468c-.5787161-.1823835-1.4998393.1364858-1.6252278.0869644-.0747508-.0350273-.4653842-1.6752717.0434037-1.881812 1.387713-.567684 5.858295-.844279 7.1567892 1.6704403.1531187.3043752.0578717.7102089-.3303504.3913396zm-6.836084 4.5547581c-.2821241.8213301-3.1865556 1.0846388-3.7206623.0144941-.2109903-.4239512-.5039653-1.5182527-.109715-1.292387.646233.3768456 2.984005.1111212 3.4264817 0 .3906333-.1002505.1350337-.6449856.3761654-.5785545.2893581.0809252.2893581 1.0785996.0277302 1.8564474zm-4.611644-4.8289374c-.0434037.8901768-.798146 1.5738133-1.6891276 1.5291233-.8873647-.0434822-1.5673562-.806836-1.5227468-1.6909736l.0144679-.1775522c-.1374451-.2101639-.8608402-.4456924-1.935082.2077481-.540135.3321556-1.1453756.105082-.2073733-.7102089.995874-.86602 1.9411103-1.3684807 2.7742204-1.4723548l.0265245-.0060392c1.4045922-.0978349 3.2299592.1896306 4.0823598.537488.3544637.1449406-.0132622 1.8866434-.0940413 1.8661101-.2905637-.0652232-.9223288-.3321555-1.4528186-.2113717zm16.8526953 4.7238555c0-7.7639844-6.0716965-13.8490737-13.8252867-13.8490737-7.6366413 0-13.8264923 6.1998339-13.8264923 13.8490737 0 .365975.0819848 1.1075877.2025506 1.8564475 3.976262-.9239963 9.2498125-.7766401 11.5924071 1.0846387 3.7930018-2.1668618 9.258252-2.3033476 13.2610384.0326117.794529-.3985867 1.6240221-.6860522 2.4595435-.9252042.1000697-.746444.1362394-1.5279154.1362394-2.0484937zm-4.5638999-21.922144c-1.6252277 1.3793513-4.1088844 4.7190242-4.4259726 7.3931781.7631819.3092066 2.7778374 1.2718537 3.0527275 1.4989273 1.9989819-1.9748155 1.592675-4.1501323 2.3739417-5.8338588.3387901-.7259108.6655235-1.2972184.8548119-1.6245425-.6486443-.3526888-1.3479262-.8551495-1.8555085-1.4337041m9.6967501 5.2910564c-.3604919.1980855-1.2020416.7150403-1.486577.9288276-1.9194084 1.4481981-6.0801361 3.3940256-7.0386347 4.4605468.7643876.6788051 1.892884 1.8963061 2.4028775 2.9169294.4677956.0205333 1.8108992-1.074976 4.4741989-4.2141477.8536063-1.0037136 1.7614672-1.5327468 3.4083968-2.4507039-.6787858-.4843431-1.2647358-1.0496114-1.7602615-1.6414522m-33.5240596 11.5902953c-.8994213-.8889689-2.6862073-1.6559462-5.0143339-1.4687313-4.7611457.3744299-7.8970636.0676389-9.6971118-.1872149-3.08045763-.4432767-4.99504342-.0108706-6.5346694-.0108706-4.68518915 0 .13021112.4227434.67999143.6365308 2.20394384.8720592 6.65041257 1.9760234 10.14802807 1.7199617 1.7084182-.119576 4.5682403.9227884 5.060149 1.0930936 1.2575018.4505237 3.5313739 1.1836816 4.75994 1.1595248.0663112-.5616448.3568749-2.2369165.5980066-2.9422941m3.8344765-5.8588611c-2.3944379-1.9349569-4.5959704-2.3480376-8.1068482-3.9991525-.7957346-.3744299-2.1316043-1.2754773-2.1991212-1.3129202-.095247-.0688468-.2700675-.1787601-.4858804-.3104145-.2061676.6594797-.6257368 1.55328-1.0103418 2.0533251.543752.7090011 4.4681706 5.1949124 9.4909441 6.5923813.5497803-.9626471 1.4359394-2.0726505 2.3112475-3.0232192m50.3261172 3.4704817c-.2363091-.037443-1.1309077-.1570189-1.7023899-.1533954-.7559479.0036235-5.7184385.0265724-7.07601.2355284-2.775426.4348218-8.1490462.2101639-11.0944701.0978349-2.2003269-.0857565-4.7358268.7742244-5.5086539 1.1909286 0 0 .8475779 2.1221718.9030382 3.5667464.9355911.1666817 1.8374237-1.0182077 4.5079574-.9735176 2.7838656.0471057 9.6332118-.3273242 13.0994802-1.6788952 2.5885489-1.0049215 4.7623513-1.5085901 6.5238185-1.8661102.5883613-.1231995 1.5215411-.239152.3472296-.4191199"/><path d="m18.6275046 14.8960573c.444888-2.36011603 2.7476959-5.79520809 8.0079841-4.45813112.646233.16426601.2652449 1.80571823-.4280087 1.5303311-3.8412282-1.50979785-5.7678706 1.40954732-6.3899904 3.71047922-.0856018.3140379-1.3720394.1956698-1.189985-.7826792m-1.8518915 2.8806943c-2.1653628.2391519-2.7995392 1.2984261-3.1853499 2.5135114-.1579413.4565629-1.3732451.1292387-1.1815454-.769393.5750991-2.6729461 3.4686796-3.3275944 4.5200139-3.099313.353258.0688468.2447487 1.3177516-.1531186 1.3551946m-6.02347019 4.7745847c-1.48054871 0-2.66932805.0301959-3.70981138 1.1655639-1.11402851 1.2078383-.84396099 1.8721494-1.05133426 2.0907681-.30382596.2995439-1.06700783-.2294893-1.05374558-.8273692.06510556-2.8444592 3.4939985-3.9544626 5.52673883-3.7261811.77523845.0917957.97537777 1.2972183.28815239 1.2972183m20.89165149-14.12929221c1.2731754-2.0195056 5.6388651-5.1272735 9.509029-1.70546765.4340371.37805338-.0831904 1.78397714-.5678651 1.45786081-3.5398136-2.43741765-6.3224735-.48071964-7.7981996 1.28272425-.7077216.83823976-1.4455846-.54715074-1.1429643-1.03511741m11.6755975-.36235148c1.3853016-2.25744974 8.6301039-4.35908835 12.3471493 2.02675263.3942503.69450701-.1326225 1.09913284-.5485747 1.38539051-.2953863.2113717-.4702068-.2681401-.6643179-.58217805-3.1552084-4.99924264-8.862796-3.68028324-10.3963937-1.36244158-.3110599.46984909-1.1417587-.80321246-.737863-1.46752351m15.706114 3.62351484c1.9230254-.68122079 5.1963884-.9843882 6.0692852 2.23450085.250777.8986316-.8524006 1.3274142-1.0971493.6981305-.8921873-2.32992005-2.5704641-2.23812434-4.5754742-1.5979701-.9247402.3031675-.7016933-1.22957932-.3966617-1.33466125m8.9049941 4.36512755c2.0701157-1.1848894 6.3080056-.9735177 7.6245847 2.8130553.2266638.6437778-.6269424 1.7380793-1.1562265.7633538-1.592675-2.9326313-4.1655504-2.9253843-6.3152396-2.1040542-.4810577.1896306-.9163005-1.0363253-.1531186-1.4723549m9.1196013 4.2612534c2.1303987-.4940058 4.6876005 1.0653134 3.961794 3.9327215-.1229771.4903823-1.3262244.5205783-1.2840263.0205332.1832601-2.4011825-1.0006966-2.5944366-2.577698-2.5787347-.596801.0144941-.5521916-1.2766851-.1000697-1.37452m-56.8685028-.2367363c.2218412-.1896306.5280784-.1654738.8065856-.0760938 2.3486228.7597303 5.7160272.2439834 7.2857946-2.2465792.2194299-.3478574.6546726-.4698491 1.0332494-.3164536 1.6228164.6582719 4.9480227.9638549 8.9966242-3.1536658.3038259-.3092066.7957346-.2705557 1.133319.0036236 3.5566928 2.8589532 7.2628872 3.0365054 11.0209249.5326566.2326921-.1546033.5292841-.3563122.787295-.2500225.2604223.1050819.4509163.3333634.5099936.6075427 1.1996303 5.5608874 6.9928196 5.0680894 8.7386132 4.7866631.2254582-.0362352.4545333.0181175.6377934.1521876.1832601.1352779.303826.3381947.3351731.5640605.190494 1.3008418 1.6288447 3.824016 4.1221466 5.1115716 2.1303987 1.097925 4.4500857 1.0133763 6.9011896-.2512304.2459543-.1280308.5389293-.126823.7848837.0048314 3.1455632 1.6825187 5.9752438 1.7815614 7.7632354.2729714 1.2599132-1.0641055 1.7723181-2.7961456 1.2707642-4.3131905-.55822-1.6897657-2.235291-2.740585-4.5995874-2.8843178-.3978674-.0253646-.7246008-.3224928-.7848838-.7162481-.2109902-1.3479475-.9621155-2.4519117-2.1762137-3.1923166-1.8482745-1.1293288-4.5682402-1.262191-7.2761494-.3551044-.2375147.0785095-.5003483.0495214-.7137498-.0833409-.2134016-.13407-.356875-.3526887-.3930447-.6039191-.148296-1.04236443-.5992123-2.45311954-1.9025292-3.25150065-1.3744508-.84065544-3.4493891-.82012219-6.0017683.05918408-.3966617.13648572-.8331101-.03744299-1.0272211-.40945718-1.6396956-3.15004223-3.9461205-5.19732811-6.6660862-5.91840757-2.4354303-.64740131-5.1421337-.17755222-7.425651 1.29117913-.2977977.19325412-.6848141.1799679-.9693495-.03381948-2.2979852-1.72841657-5.0480924-2.27919083-7.5450113-1.51342136-2.4318133.74402838-4.2849105 2.64637367-5.2192958 5.35434709-.0759565.21982657-.2375148.39979447-.448505.49400586-.2109903.0978349-.452122.10266625-.6679349.01570189-3.7266906-1.49771946-6.7673615-1.46027647-8.7976905.11112113-1.7433822 1.34915535-2.2823116 3.47615856-2.2039438 4.09698746.0554603.4287826-.2025506.8249535-.6221198.9276198l-.8909817.2137874c-2.0640875.4722647-4.20172007.9626471-4.84433608 4.2540064-.07233952.365975-.37616547.6437778-.74871397.6800129-3.58924552.3599358-5.93425142 1.6909736-6.43098274 3.6561265-.34843533 1.3841827.29297503 2.9531646 1.56132783 3.8119376 1.27679241.8672279 2.81521273.77664 4.22221627-.246399.23148644-.1690974.53410674-.208956.80055728-.1062898 2.10749111.806836 5.52673881.6474013 7.60047151-1.0169998 1.5022506-1.2078383 2.0918176-2.9893997 1.7530276-5.2915395-.0434037-.2922969.0651055-.5833859.2905637-.7718087m-12.22212251 23.8112031c-2.54635087-.0543527-4.66710427.6655189-5.41461258 1.9748156-1.37686207 2.4108452.24113171 4.4907427 1.20927554 5.0729207 2.21358911 1.3334535 4.32349158.4626021 4.4802272-.3575201-.6052406-.6824286-1.64813525-2.2272538-2.23287965-2.24054-.84998929-.0229489-.78126675-1.1281209-.16396957-1.3286221 1.47934305-.4903823 2.91769371 2.322673 5.04206409 3.8433414 1.89288398 1.3564024 4.54774408.3623515 4.54774408-.194462-1.1586379-1.0508193-2.5427339-6.6588124-7.46784911-6.7699335m50.66068751 6.6324815c1.7614671 1.7876007 4.1643446 1.0218312 4.2752652.4360297-.1965223-.3563123-1.3081395-1.9965567-1.9616064-2.3516612-.5329011-.2947125-.8789251-.783887-.5907727-1.1921363.4786464-.6788052 1.4419676-.1980855 2.0568535.5459429.6148858.753691 2.3112474 2.9664508 2.9056371 3.3058533 1.5432429.8551495 4.9468171.5483586 4.6719269-.4469001-.9416193-1.4928882-1.5914693-4.5100682-4.3958311-5.8302354-2.9128711-1.3757278-6.64559-1.0169998-10.1022131.2186187.6209142 1.2392421 2.2401136 4.4061941 3.1407406 5.3144884m-20.4459195-5.6331161c-2.9164881-1.3769357-7.0326064-.9167493-10.4928465.3140379.9584986 1.2803086 2.5523792 4.2697083 3.375844 5.2782533 1.5914693 1.9397883 4.3126407.9602314 4.4247669.3744299-.190494-.3575202-1.6517522-2.2514106-2.2015325-2.5678642-.5136106-.2947125-.8126139-.7645616-.5244615-1.172811.4834691-.6800129 1.6179938 0 2.2340853.7440284.6148859.7488597 2.3413889 2.9157216 2.9092541 3.301022 1.7023899 1.1559013 4.9480227.55319 4.6743382-.4384453-1.1152341-1.4771862-1.6011145-4.5148995-4.399448-5.832651m-21.8441218 22.3429548c-2.0701157.0615998-4.0956221.8780984-5.28560709.6703503v13.8901402s.75112528.5725153 2.82847499-.0205333c2.6886186-.7657694 3.8846319.0760938 3.8846319.0760938v-14.0133397s-.3122656-.6365308-1.4274998-.6027113m7.424566 58.0892906c2.0773497.594257 2.828475.020534 2.828475.020534v-13.891348c-1.189985.207748-3.2154914-.609959-5.2892241-.675182-1.1116172-.036235-1.4274998.601504-1.4274998.601504v14.013339s1.1996303-.839447 3.8882489-.068847m45.14914-58.0892906c-1.1116172-.0338195-1.4311168.6027113-1.4311168.6027113v14.0133397s1.1960133-.8418632 3.8882489-.0760938c2.0773497.5930486 2.828475.0205333 2.828475.0205333v-13.8901402c-1.1887794.2077481-3.2154914-.6087505-5.2856071-.6703503m-47.610492 0c-1.1116171-.0338195-1.4287053.6027113-1.4287053.6027113v14.0133397s1.2008359-.8418632 3.8894545-.0760938c2.076144.5930486 2.8272693.0205333 2.8272693.0205333v-13.8901402c-1.1887794.2077481-3.2154914-.6087505-5.2880185-.6703503m-3.5314944 58.1581376v-14.013339s-.3158826-.637739-1.4274998-.601504c-2.0737327.065223-4.0992391.88293-5.28560708.675182v13.891348s.7475083.573723 2.82365238-.020534c2.6898242-.7706 3.8894545.068847 3.8894545.068847m49.9728593-14.013098v14.01334s1.1972189-.839448 3.8846318-.068847c2.0785554.594256 2.8260637.020533 2.8260637.020533v-13.891348c-1.1911907.207748-3.2130801-.609958-5.2819902-.675181-1.1188511-.036235-1.4287053.601503-1.4287053.601503m-3.7943281-44.1450396c-2.0701157.0615998-4.0992391.8780984-5.2892241.6703503v13.8901402s.752331.5725153 2.832092-.0205333c2.6813846-.7657694 3.8822205.0760938 3.8822205.0760938v-14.0133397s-.3098542-.6365308-1.4250884-.6027113m-5.0265111 44.2189596v13.891348s.748714.572515 2.8236524-.020533c2.6898242-.770601 3.8906601.068846 3.8906601.068846v-14.013339s-.3170882-.637739-1.4311167-.601504c-2.0713214.065223-4.0956221.88293-5.2831958.675182"/><path d="m78.1839026 85.0970675h-9.5271139v1.1993834h-3.9509431v-1.1993834h-9.5271139v-16.1306803h2.026712v-2.935047c2.0677045.5000451 5.4399314-.6413621 6.945799-.6377472 1.6794824.0036321 2.5294716.7295429 2.5294716.7295429s.8656629-.7295429 2.528266-.7295429c1.5070732 0 4.8744776 1.1269217 6.9445933.6377472v2.935047h2.030329zm-28.2956006 6.1672222h33.2532686v-30.2092432h-33.2532686zm-19.5706115-6.1672222h-9.5283195v1.1993834h-3.9497375v-1.1993834h-9.53073086v-16.1306803h2.03274032v-2.935047c2.06649877.5000451 5.43872574-.6413621 6.94338764-.6377472 1.6794824.0036321 2.5330886.7295429 2.5330886.7295429s.8632516-.7295429 2.5258547-.7295429c1.5058675 0 4.8744776 1.1269217 6.9409763.6377472v2.935047h2.0327403zm-28.21361586 6.1672222h33.27858746v-30.2092432h-33.27858746zm47.78434786 54.0130783c8.3841496-2.43017 16.6911371-5.679255 22.3155343-10.831894 1.9905422-1.822627 3.6435001-3.727388 5.0275961-5.803662h-8.5758493v1.200591h-3.9485318v-1.200591h-9.5331422v-16.134304h2.037563v-2.936255c2.0628818.500045 5.4351088-.635323 6.9409763-.635323 1.6794824.002416 2.528266.730742 2.528266.730742s.8668685-.730742 2.5270603-.730742c1.5082789 0 4.8768889 1.128121 6.9445933.635323v2.936255h2.0363573v14.591894c3.0611671-5.306034 4.516397-11.801788 5.0119227-20.929422l-.0590773-1.361233h-33.2532687z"/><path d="m7.49215492 127.01519v-14.363889h2.02929049v-2.924731c2.05572289.499081 5.41624719-.632569 6.91688889-.632569 1.673654.002405 2.524298.728778 2.524298.728778s.8602558-.728778 2.5158877-.728778c1.5018432 0 4.8575616 1.124434 6.9168889.632569v2.924731h2.0256861v16.063166h-9.4976562v1.195388h-3.9324262v-1.195388h-8.45958221c1.35286033 2.051641 2.95082151 3.952956 4.83353211 5.718377 5.2804805 4.953522 13.5670504 8.315999 22.0987211 10.817413v-40.26555h-33.15829426l.06968552 1.274759c.32920403 8.312391 1.88871798 15.092667 5.11708006 20.755724"/></g><path d="m81.7978282 34.8515521c-1.7553543.3559705-3.9216128.8574559-6.5011787 1.8580215-3.4542393 1.3457126-10.2798161 1.7185195-13.0540208 1.671618-2.6624676-.0432937-3.5599691 1.1352572-4.4923133.969298-.0552678-1.4371105-.8999044-3.5512864-.8999044-3.5512864.7701451-.4136954 3.2956446-1.2699486 5.4895371-1.1845638 2.9352023.1106394 8.2889728.3355262 11.0559687-.0986135 1.3528603-.2068477 6.2981295-.2308997 7.0514541-.2345075.5694989-.0036079 1.4597915.1154498 1.696482.1527305 1.1702362.1803905.2402949.2946377-.3460247.4173032m-16.2355254 10.5684743c2.7946298 1.3132423 3.4422246 4.3173443 4.3805762 5.8049641.2739362.9897422-3.1178264 1.2964059-4.6557138.4437605-.592327-.3379314-2.2828017-2.5410999-2.8955537-3.2903215-.612752-.7408034-1.5727301-1.220642-2.0497155-.5447791-.2871525.4076823.0576707.8935339.5887225 1.186969.6511992.3547679 1.7589587 1.9867 1.9547991 2.3414679-.1105357.5832624-2.5050745 1.3469152-4.2604288-.4341397-.8975014-.9043574-2.5110817-4.0575822-3.1298411-5.2914527 3.4446275-1.2302628 7.1643926-1.5874358 10.0671551-.2164685m10.2738088-.9524615c6.0506258.5135114 7.4887908 4.50014 6.886852 5.7941407-.5298502 1.1364597-4.2339962 2.6108509-9.8508897 1.0258203-1.8538752-.8261882-3.3232786-5.0978337-3.8639421-5.6438154-.2210713-.2176711 3.2740181-1.4804042 6.8279798-1.1761456m-30.2603377 7.0232009c-1.8490693-.8249856-3.3208756-5.0978337-3.8675465-5.6438154-.2186684-.2164685 3.2812269-1.4804042 6.8351886-1.1761456 6.0542302.5135114 6.0698494 4.2764558 7.5572748 6.1501112.5454695.6866862-4.904419 2.2548804-10.5249169.6698498m-7.5993264.0721561c-.5658945-.3824277-2.2864061-2.5410999-2.9003596-3.2867137-.612752-.7408034-1.744541-1.4178688-2.2251308-.7408034-.2871524.4076824.0096118.8742924.5214399 1.1677275.5490739.3150819 2.005261 2.2007633 2.195094 2.5567337-.1117371.5832624-2.8246666 1.559776-4.410613-.3728069-.8194056-1.0041734-2.407755-3.9806156-3.3629272-5.2553746 3.4482319-1.2254524 7.5500659-1.6824415 10.4564329-.3126768 2.7874209 1.3132424 3.2728166 4.3365861 4.3841805 5.8073694.2727348.9885396-2.9616347 1.5874358-4.6581167.4365448m-19.8027034-.3800225c-1.8538752-.823783-3.3196741-5.0954284-3.8651435-5.6414101-.2174669-.2164686 3.278824-1.4864172 6.8315842-1.1797535 6.0494243.5159167 6.0674464 4.2764559 7.5572748 6.153719.5430665.6830785-4.9080235 2.2476648-10.5237155.6674446m-7.1235425.075764c-2.11699812-1.514077-3.55035725-4.3149392-5.0245665-3.8266824-.61515497.1996321-.68363901 1.3000137.16340053 1.3228632.58271516.0132286 1.62199063 1.5513577 2.22513085 2.2308284-.15619169.8165673-2.25877213 1.683644-4.46467938.3559704-.96478406-.5796546-2.57716288-2.6505368-1.20507896-5.0509321.74491421-1.3036216 2.85830792-2.0203729 5.39582214-1.9662558 4.90802352.1106395 6.28731622 5.6943247 7.44193332 6.7405892 0 .5544-2.645647 1.5441422-4.531962.1936191m11.7816593-12.6706241c-.4902016-.169567-3.3413007-1.2074133-5.0425886-1.0883556-3.4854776.2537492-7.91651574-.8442272-10.11281119-1.7125065-.54787239-.2128607-5.34656169-.6337717-.67763164-.6337717 1.53428299 0 3.44102303-.4305319 6.51199203.0108234 1.7926.2537492 4.9176352.5580077 9.6634597.1852008 2.3200473-.1852008 4.1006326.578452 4.9969326 1.4635677-.2402949.7011175-.5298503 2.3691277-.5959314 2.9295407-1.2243026.0228495-3.491485-.7071305-4.7434215-1.1544988m-2.5999909-11.1613574c.3820689-.4990802.8001821-1.3890064 1.0056342-2.0456276.215064.1310838.3892778.2417232.4841942.309069.0672826.0372807 1.3985164.9344224 2.1914896 1.3072293 3.4986939 1.6439582 5.6925864 2.0552484 8.0787148 3.9818182-.871069.9464485-1.7553543 2.0516405-2.3032267 3.0101151-5.0041414-1.3914116-8.9149411-5.8578787-9.4568061-6.562604m-1.9487917-.7732737c-2.0665362 1.6571868-5.473918 1.817133-7.5740955 1.0125916-.2655258-.1022212-.5670959-.0625353-.79777905.1058291-1.40212078 1.0198072-2.93400082 1.1087999-4.20636235.245331-1.26515269-.8550507-1.90433714-2.4172318-1.557111-3.7954148.49500751-1.9566349 2.83187548-3.2819033 6.4086652-3.6390763.3712556-.0372807.6752287-.3138794.7461157-.678268.6415874-3.2770929 2.7706002-3.7653497 4.8287261-4.2355674l.8866882-.2128607c.4193146-.1022213.6752287-.496675.6199609-.9235991-.0780958-.6181379.4589633-2.734719 2.1962955-4.079229 2.0232831-1.56458635 5.0546033-1.60186704 8.7671596-.1106395.215064.0865875.4553589.081777.6656169-.0156338.2102581-.093803.3712557-.2729908.4469486-.49186457.9323442-2.69623569 2.7778091-4.59033525 5.2011832-5.33113863 2.4882538-.76245024 5.2288172-.21406332 7.5188277 1.50686142.2847495.21286072.6692213.22608935.9659855.03487549 2.2755928-1.46356772 4.9729031-1.93138025 7.3998817-1.2867851 2.7105265.71795393 5.0089473 2.75636583 6.6441542 5.89395679.1922359.3691991.6283712.5423739 1.0236563.4064798 2.5435216-.8754949 4.6112593-.8959392 5.9797388-.0589276 1.2987939.7949205 1.7481454 2.2007633 1.8971282 3.2386096.0360443.2489388.1778183.4678126.3904793.6000989.2138624.1322863.4745824.1611488.7112729.0829796 2.6985118-.9031548 5.4090384-.7708685 7.2508988.3535652 1.2098849.7383982 1.9584035 1.8363746 2.169863 3.1784795.0600738.3920485.3844719.6890914.7809585.7131435 2.3560916.1431097 4.0273426 1.1893742 4.5836254 2.8718157.4998134 1.5104692-.0108133 3.2362044-1.2663542 4.2956975-1.7805853 1.5008484-4.6016475 1.4034376-7.7350931-.2729908-.2451008-.1310837-.5382606-.1322863-.7833614-.0048104-2.4413962 1.2591252-4.7542347 1.3433074-6.8772402.2501414-2.4834479-1.2819747-3.9180085-3.7942122-4.1078415-5.0882129-.0300368-.2260893-.1513858-.4281266-.3340099-.5628181-.1826241-.1322864-.4109043-.1876061-.6343785-.151528-1.7397352.2814091-7.5140218.7720711-8.709489-4.7659153-.0588722-.2729908-.2487052-.5002828-.5082237-.6049092-.2571155-.1058291-.5526783.0950056-.7845629.2501414-3.7449961 2.4917932-7.4383288 2.3150106-10.9826787-.5315505-.3364129-.2729909-.8266145-.3114741-1.1293861-.0036078-4.0345515 4.0996733-7.3470168 3.7954147-8.9642015 3.1399961-.3784645-.1527305-.8109953-.0312676-1.0308651.315082-1.5643199 2.4797672-4.9200383 2.9932786-7.2605107 2.238044-.2775406-.0901952-.5815136-.1142473-.8037864.0745614-.2246758.187606-.3328085.4774333-.2895554.7684632.3388158 2.2933637-.2499067 4.0660004-1.746944 5.2686033m28.26589-2.1177837c-.379666.9608797-.5286488 1.4683781-.6704228 2.0083468.2955627-2.0660717-.2655259-5.0882128-.8662632-7.7002663 1.8022119.0384833 3.6260502-.4353422 5.4354709-1.4623651.1405725.408885.326801.7648554.5118281 1.1208259-1.0212534.9320172-3.4626496 3.6138217-4.410613 6.0334587m8.4727984-2.0203729c.0648796-.111842.1393711-.2561544.2162654-.4124928 1.4838211.4930672 3.1118191.6241509 4.7085787.4485709.1621991.5231323.4121058 1.0799374.734101 1.641553-.0072089.0024052-.022828.012026-.0264325.0144312-.7905702.3764147-3.1863104 2.0167651-6.6886087 3.9697922-.9059118.5014854-1.463396.9849317-1.7841897 1.3156475.3856733-.5195244.8554499-1.2050081 1.1522141-1.9638505.6163564-1.5790176.4529559-2.8477636 1.6880717-5.0136515m-2.1097893.5351583c-.777354 1.6752259-.3724571 3.8423163-2.3645019 5.808572-.2751376-.2272919-2.2828016-1.1857664-3.0421335-1.4936328.3159878-2.6613602 2.7910254-5.9877598 4.410613-7.3611323.5058208.5760468 1.202676 1.0763296 1.8490693 1.4274896-.1886315.3259054-.5142311.8959392-.8530469 1.6187035m-12.2093842-.2778012c.1597961-2.5639494.6415874-4.3041158.7124744-4.6312238.5430665.2609648 1.2038775.4858516 1.8442634.6494056.5034178 1.0679113 1.3588677 5.3335438.9840076 7.9023036-1.1654303-.1082343-2.5254994-.0805744-3.3388977 0-.2523096-.4569891-.2883539-2.5471129-.2018477-3.9204854m1.9836344 5.2698058c7.7266828 0 13.7773086 6.0587134 13.7773086 13.7890448 0 .5183219-.0360443 1.2964059-.1357667 2.0396145-.8326218.2381154-1.6592363.5243349-2.451008.9211938-3.9888955-2.3258339-9.4351796-2.1899398-13.2150185-.0324702-2.334465-1.8532111-7.5897146-1.9999286-11.5521776-1.0787348-.1201475-.7468164-.2018477-1.4852146-.2018477-1.8496033 0-7.6160841 6.1683702-13.7890448 13.7785099-13.7890448m-7.3013607-3.6486971c.9804032 1.2843799 1.863487 2.7948491 2.0545214 3.1135389-.825413.2970429-2.2767942 1.0306306-3.1166249 1.6006644-1.5727302-1.6271217-2.7910254-6.5373493-3.5767897-7.8397683-.3015701-.4978776-.5130296-.8430246-.6776316-1.111205.541865.1888086 1.4081281.1623514 1.9187548.169567.1525873.2176711 1.5078505 1.5573707 3.39777 4.067203m3.5335366 2.3089975.0588722.1262733s-1.2303099-1.8484006-1.3780912-2.0829082c-.4217176-.6445951-.96959-1.2952033-1.582342-2.0516405-.9635826-1.1665248-1.8094207-2.1141759-2.4618213-2.8213064 1.6111773-.3944538 3.4518363-1.314445 5.4342693-3.1856951.2114595.1539332.425322.2705857.637983.4052772-.1081327.6361769-.2078551 1.2110211-.2847495 1.6283243-.4565603 2.4978062-.4890001 4.418363-.5214399 5.242146-.0348428.7804893.0420516 2.0131573.0973194 2.7395294m-17.221936-4.1417643c2.2299367.3523626 4.8263232-.1695671 6.7150412-1.8700475 2.3188458 3.7064221 2.380121 7.0616841 4.6172666 9.3742895-2.8258681-2.7359216-5.2900924-2.683007-9.3306512-4.8657313-.6980567-.3764147-1.7397352-1.0534801-2.032895-1.2026029-.0048059-.0036078-.0132162-.0072156-.0180221-.0096208.0456561-.3415392.0744914-.6963071.0744914-1.0775322 0-.1082343-.022828-.2357102-.0252309-.3487548m38.2393301 6.7862881c-2.6540573 3.1255649-3.9924999 4.2163257-4.4574706 4.1946789-.5094252-1.0149969-1.6340053-2.2272206-2.3957402-2.9030834.9551723-1.0618984 5.1026624-2.9992916 7.0154098-4.4412125.2823465-.2128607 1.1221772-.7275747 1.4802167-.9248016.493806.5880728 1.0789241 1.1520935 1.7553543 1.6343373-1.6412143.9139782-2.5471261 1.4407183-3.39777 2.4400813m26.8109043 4.2259466c-.498612-.3655913-5.782697-1.0174021-6.605707-1.0174021-.8037865 0-5.3669868.0408885-7.1295499.3078663-2.7381605.4076824-7.4118965.4076824-10.9610522 0-1.2843763-.1503253-2.7057207.163554-3.8687481.5399687.2282802-.1924164.473381-.414898.7677423-.7191565 1.0476858-1.0775322 2.2203249-3.1255649 4.3024803-4.1465748.5262458-.2609648 1.0176489-.52674 1.4946343-.7949205 1.7481455.8742923 4.5031266 1.4683782 7.9261275-.1443123 5.1086698 2.5531259 8.1556092.8261882 9.2333319-.0829796 1.316816-1.1112051 2.0521185-2.7527581 2.0521185-4.4051344 0-.5772494-.0889092-1.1557014-.2739362-1.7125065-.7353024-2.2224102-2.759787-3.6078087-5.5424021-3.9337141-.1597961-.5928832-.4121057-1.1424728-.7148773-1.6631998.3231966-.4112902.6295726-.7997309.8302189-1.0354411.2414964-.3054611 1.0801256-1.6992779-1.1666318-.5363609-.116543.0601301-.3304055.1779852-.6055432.3343236-.3147863-.3114741-.660811-.5976936-1.058499-.8406194-2.0953716-1.2783669-4.9272471-1.4335027-7.8444273-.654216-.4097028-1.5561681-1.1786465-2.8706131-2.4029491-3.6198347-1.2843762-.78650229-2.901561-1.01379424-4.8070996-.72156174.118946-.28020647.2270787-.52794267.3183908-.72156173.8470395-1.77744708.3904792-2.22241015-.4998134-1.43470526-1.0056342.89112875-1.6388113 1.52730568-2.1218041 2.03961451-1.8034132-2.89707037-4.1775269-4.85250268-6.9841714-5.59691387-2.4341875-.64579775-5.0642152-.30305593-7.435926.84422723-.1405725-1.19298207-.2967642-2.17430603-.468575-2.73952939-.4421427-1.44071827-.96959-.30906894-1.0524917.13589413-.0985209.60130145-.2342876 1.42869224-.3916807 2.38716674-2.3693078-1.26754345-5.0017385-1.61750089-7.4635598-.86346887-2.7045192.82859339-4.767451 2.84656105-5.9557093 5.64862579-.9816047-.34875484-1.8706959-.56161555-2.7081236-.70833311-.496209-.65060816-1.2291085-1.47679635-2.2551677-2.37514071-.6920494-.61332748-1.2627498-.29463771-.8470396.9151808.1621991.46781253.3027716.88271052.4337323 1.27475907-1.9295681.10703166-3.3388977.74080338-4.2868611 1.47318854-1.8743003 1.44913647-2.6372366 3.52482907-2.7898239 4.84167927-.1105357.0276599-.2571155.0637379-.2571155.0637379-1.5727302.3607809-3.6945342.9524615-5.0245666 3.0510036-.2342875-.145515-.4060984-.2525466-.4769853-.2994481-3.96366455-2.6337004-2.13622178.7552346-.60314027 2.2488674-5.27086879.7468164-6.75709279 3.2807007-7.1391617 4.7863595-.09611796.3824277-.14417694.7744763-.14417694 1.1653222 0 1.7113039.89149411 3.4262156 2.39093433 4.4436177 1.76136167 1.1929821 3.8975834 1.1208259 5.79831608-.0962082 2.4822464.8009335 5.9869477.6710524 8.5028353-1.1593092 1.4501798 1.5645863 2.6216175 2.6745888 3.2571975 3.3071579 1.579939 1.5730046 3.8963819 2.7719997 5.0822373 3.2205706-1.1714377-.4545839-3.1226323-.9428407-5.073827-.6710524-4.2135712.5868702-7.0106039-.1767827-8.8140172-.3559705-2.972448-.2946377-6.02779773.2176711-7.5488645.2176711-1.61237882 0-3.88917307.7588425-4.99813407.9223964-1.19907159.1791879-1.12097574.9729058.54787239 1.4154637 1.65202749.4485708 4.74822737.7239669 5.58805807 1.0823426 2.69010149 1.1701326 7.18962361 2.1466461 10.36151641 1.8916943 2.2515633-.1719722 4.5175443.9272068 5.1002594 1.0991791 1.1161699.3427418 3.8831657 1.099179 5.0197606 1.0775321 0-.0673457 0 1.6006645.1177445 2.389572-.4301279.1419071-.8434351.2922325-1.2134893.4617995-1.2591453-.766058-6.7883311-3.010115-13.5213944-.2164685-1.4237473-.4930672-4.43464251-2.156267-8.56050607-.7961231-5.09425204 1.6824414-4.26883903 6.3521485-2.58797615 8.491579 2.27198835 2.8934626 6.47714923 2.3065924 7.7002503.8514429 2.73575752 1.8183355 5.52678292 1.2026028 7.55367042-.0553198 1.3312338.7840971 7.881673 2.0841108 12.8605834.0553198.6812361.5062958 3.4145907 1.934988 6.9240978.1647565 2.0256861 1.2050081 5.3765986 1.2976086 7.0959086-.2200763.6235653.5315505 2.4930597 1.2903929 6.4771492 1.244694 4.7830702-.0577249 5.8944341-.772071 6.5648569-1.3553334 1.0308652.4786359 3.7149593 1.8844787 7.0382378.4654073 1.7926001 1.1292441 5.380203 1.0631009 7.3037638-.1996321 3.5155145 1.5994618 9.9650298.8754949 11.5786101-.2381154 2.8859418-2.0035364 1.4898284-6.0875758-1.6880718-8.0261717-6.248869-3.1520222-12.0652073-.7059279-13.6103035.0865874-1.8394575-1.2434914-5.6901834-2.0408171-9.6886907-1.2976085.0612752-.4762308-.0084103-1.0210099-.0084103-1.6283243 0-.063738-.0096118-.1250707-.0108133-.1888087.7917718-.2417232 1.9187549-1.0955712 4.2123698-1.238681 3.1214308-.2116581 10.4840668-.1130446 14.1653848-2.0011312 2.1013789-1.075127 9.4099485-2.5098322 10.3855458-3.0786634 1.0056342-.5760468.7401084-1.0041734.2258773-1.356536" fill="#1a1919" mask="url(#b)"/><path d="m10.9750503 23.25694c-1.48249497 0-2.67162978.0312676-3.71468813 1.1605118-1.11549295 1.2026029-.84507042 1.8640345-1.05150905 2.0817056-.3054326.2982455-1.06961771-.227292-1.05513079-.823783.06398391-2.8321298 3.49738431-3.9361193 5.53400407-3.7100299.7762575.0913978.9766599 1.2915955.2873239 1.2915955m6.0316298-4.7529272c-2.1682093.2369128-2.8032193 1.2915955-3.1895372 2.501414-.1581489.4545839-1.3750503.1286785-1.1830986-.766058.5758551-2.6613602 3.4732394-3.3119684 4.5259557-3.0846764.3537223.0673457.2450704 1.3120397-.1533199 1.3493204m9.4446277-5.78439964c-3.8462776-1.50205102-5.7754527 1.40343757-6.3983903 3.69559864-.0857143.3114742-1.3738431.1936191-1.1915493-.7804892.4454728-2.34868348 2.7513079-5.77008871 8.0185111-4.43760471.6470825.16235139.2655935 1.79668873-.4285715 1.52249527m14.3958954-3.77701491c-3.5432595-2.42685264-6.3307847-.47863595-7.8084507 1.27716427-.7086519.83460641-1.4474849-.54477911-1.1432595-1.02942808 1.2736418-2.01195464 5.6450704-5.10625188 9.5203219-1.69927789.4358149.37641471-.0832998 1.77624448-.5686117 1.4515417m14.5518712 3.2837072c-.2945674.2092529-.4696177-.26818045-.6651911-.5796546-3.1593561-4.97757337-8.8732394-3.66553362-10.4100604-1.35653606-.3114688.46781253-1.1420523-.80093353-.7376257-1.46116252 1.3859155-2.2476648 8.6414487-4.34019384 12.362173 2.01676506.3947686.69269926-.1315895 1.09557123-.5492958 1.38058812m8.8915896 3.12941325c-.8933602-2.31982098-2.5738431-2.22722056-4.5814889-1.58984103-.9247485.30185333-.7014085-1.22424974-.3959759-1.3300788 1.9243461-.67826803 5.2020121-.97891875 6.0772636 2.22481536.2498994.89593917-.8547284 1.32286317-1.0997988.69510447m10.4157344 4.987555c-1.5947686-2.9199198-4.1710262-2.9127042-6.3235413-2.0949343-.4816901.1888087-.917505-1.0318332-.1533199-1.4647703 2.072837-1.1797534 6.3162978-.9705005 7.6346077 2.7996596.2269617.6409873-.6277666 1.7305455-1.1577465.760045m6.6214889 4.5971901c-.1231388.4882567-1.3279678.5195244-1.2857143.0204442.183501-2.3907745-1.002012-2.583191-2.5810865-2.5663546-.5975855.0132287-.5529175-1.2711512-.1002012-1.3697647 2.1331992-.4918645 4.6937626 1.0606958 3.967002 3.9156751m-41.4676056 12.3607133c-.0434608.8863183-.8004024 1.5669916-1.6913481 1.5224953-.8885312-.0420911-1.5694165-.8033388-1.5259557-1.6836441l.0144869-.1767826c-.1364185-.2092529-.8607646-.4437605-1.9364185.2068477-.5408451.3307158-1.1468813.1046264-.2088531-.7071305.9983903-.8622663 1.9436619-1.3625491 2.7790744-1.465973l.0265594-.006013c1.4052314-.0974108 3.2329979.1888087 4.0877263.5363609.3549296.1431098-.0144869 1.8772631-.0953722 1.8568189-.2897384-.0649406-.922334-.3307158-1.4535211-.2092529zm4.6177062 4.8078861c-.2824949.81777-3.1919517 1.0799374-3.7267605.0144312-.2100604-.4221136-.5034206-1.5116718-.1086519-1.2855825.6470824.3740095 2.9879275.1094369 3.4297786 0 .3911469-.099816.1364185-.6433925.3778672-.5760467.2885312.0793717.2885312 1.0727217.0277666 1.847198m6.8447083-4.534775c-.7315896-.6000988-1.6889336-.8634689-2.0559356-.6000988l.0132796.1238681c.0760564.8827105-.5782696 1.659592-1.4643863 1.7389637-.8873239.0781692-1.6708249-.5796545-1.7444668-1.4599599v-.0685483c-.5794768-.1815931-1.5018108.1358941-1.6273642.0865874-.0748491-.0348755-.4659959-1.6680102.0434608-1.8736553 1.3895372-.5652234 5.865996-.8406195 7.1661972 1.6631998.1533199.3030559.0579477.7071305-.3307847.3896433m-51.0450302 21.9930815v44.5119409c0 14.7114414 3.69054326 24.8998934 11.5798793 32.0577854 7.8374245 7.10618 19.571831 10.712787 31.0466801 13.41263 11.7851106-2.773202 23.1271629-6.233091 31.0418511-13.41263 7.8929577-7.157892 11.5605633-17.346344 11.5605633-32.0577854v-44.5119409zm65.6450704 52.1244173v13.952599s-1.2012072-.834607-3.8945674-.068549c-2.0788732.591681-2.8273642.020445-2.8273642.020445v-13.829934c1.1879276.205645 3.2160966-.608517 5.2901409-.672255 1.1154929-.03728 1.4317907.597694 1.4317907.597694zm8.8297787.074561v13.829934s-.748491.571236-2.8297787-.020445c-2.6909457-.766058-3.8897384.068549-3.8897384.068549v-13.952599s.3102616-.634974 1.4305835-.597694c2.0716298.063738 4.0961771.8779 5.2889336.672255zm3.7484909 15.585734v-14.528646h-2.0390342v-2.923527c-2.0704225.491864-5.4434607-.63257-6.9537223-.63257-1.6635815 0-2.5303823.727575-2.5303823.727575s-.8498994-.725169-2.5315895-.727575c-1.5090544 0-4.8845071 1.130447-6.9501006.63257v2.923527h-2.0402415v16.06437h9.5456741v1.195387h3.9537223v-1.195387h8.5859155c-1.3847083 2.067274-3.039839 3.963779-5.032998 5.778507-5.6317907 5.130304-13.9496982 8.365305-22.3448692 10.784942v-40.29321h33.2969819l.0579477 1.355334c-.4949699 9.08807-1.9521127 15.555668-5.0173039 20.838703zm-30.0784708 18.622306-5.5183098 1.398627-5.5303823-1.420274v-42.6430963h-35.0571429v-9.7891875h35.0571429v-31.9254991h11.0486921v31.9254991h35.037827v9.7891875h-35.037827zm-28.3207243-20.330002v-13.952599s.3162978-.634974 1.4293762-.597694c2.0764588.063738 4.1046278.8779 5.2961771.672255v13.829934s-.7521127.571236-2.8321932-.020445c-2.6921529-.766058-3.8933601.068549-3.8933601.068549zm-8.8297787-.048104v-13.829934c1.1879276.205645 3.2173038-.608517 5.2925553-.672255 1.1130785-.03728 1.4293763.597694 1.4293763.597694v13.952599s-1.2012073-.834607-3.8933602-.068549c-2.0800805.591681-2.8285714.020445-2.8285714.020445zm24.362173 19.827313c-8.5726358-2.501414-16.8989939-5.863891-22.2048289-10.818615-1.8917505-1.765421-3.49859159-3.665534-4.85794773-5.717174h8.50020123v1.195387h3.9525151v-1.195387h9.5432595v-16.06437h-2.0354124v-2.923527c-2.0692153.491864-5.4422536-.63257-6.9501007-.63257-1.6647887 0-2.5279678.727575-2.5279678.727575s-.8547283-.725169-2.5364185-.727575c-1.5078471 0-4.884507 1.130447-6.95010057.63257v2.923527h-2.03903421v14.365092c-3.24386318-5.663057-4.81086519-12.444535-5.14285714-20.755724l-.06881288-1.274759h33.317505zm-33.317505-53.7503359h33.322334v-30.078301h-33.322334zm47.8466801 0h33.2969819v-30.078301h-33.2969819z" fill="#1a1919"/><path d="m26.8259155 82.2360734s-.7521127.5700338-2.8309859-.0204442c-2.6921529-.7624502-3.8945674.075764-3.8945674.075764v-13.9525988s.3162978-.6337717 1.4305835-.6000988c2.0752515.0613327 4.1046277.8742923 5.2949698.6674446zm-8.8358149.0553198s-1.1975855-.8382142-3.8897384-.075764c-2.0800805.590478-2.8321932.0204442-2.8321932.0204442v-13.8299332c1.1915493.2068477 3.2197183-.6061119 5.2925553-.6674446 1.1167002-.0336729 1.4293763.6000988 1.4293763.6000988zm10.5416499-12.8197469v-2.9235276c-2.0704225.4882568-5.4434608-.6337803-6.9513078-.6337803-1.6635815 0-2.5291751.7251781-2.5291751.7251781s-.8535211-.7215617-2.5352113-.7251781c-1.5066398-.0035992-4.884507 1.1316579-6.95251505.6337803v2.9235276h-2.03661972v16.0607617h9.54446677v1.192982h3.9549296v-1.192982h9.5408451v-16.0607617zm45.9647083 12.7644271s-.75332.5700338-2.8334004-.0204442c-2.6945675-.7624502-3.8933602.075764-3.8933602.075764v-13.9525988s.3199195-.6337717 1.4342052-.6000988c2.072837.0613327 4.1022133.8742923 5.2925554.6674446zm-8.8358149.0553198s-1.2024145-.8382142-3.887324-.075764c-2.082495.590478-2.8358149.0204442-2.8358149.0204442v-13.8299332c1.1915493.2068477 3.2233401-.6061119 5.2961771-.6674446 1.1167002-.0336729 1.4269618.6000988 1.4269618.6000988zm10.8024145-12.8197469v-2.9235276c-2.0728371.4882568-5.4446681-.6337803-6.9537224-.6337803-1.6647887 0-2.5315895.7251781-2.5315895.7251781s-.8511067-.7215617-2.5327968-.7251781c-1.5078471-.0035992-4.884507 1.1316579-6.9549296.6337803v2.9235276h-2.0293762v16.0607617h9.5396378v1.192982h3.9561368v-1.192982h9.5396378v-16.0607617z" fill="#1a1919"/><path d="m37.3736016 145.95226 5.5303823 1.421476 5.5183099-1.399829v-42.6647433h35.0378269v-9.7891876h-35.0378269v-31.925499h-11.0486922v31.925499h-35.05714285v9.7891876h35.05714285zm-16.1314286-101.417186c-3.5698189-.3066637-7.0828973.9632849-6.8643863 1.1797535.5468813.5459817 2.0209256 4.8176271 3.882495 5.6402075 5.6438632 1.5814228 11.1199195.0168365 10.5754527-.666242-1.4981891-1.8772631-1.5150905-5.6390049-7.5935614-6.153719m27.5340845.3089487c-3.5710261-.3042585-7.0877263.9596771-6.8668008 1.1761456.5492958.5459817 2.0269618 4.8176272 3.8849095 5.6438154 5.6474849 1.5850306 11.1235412.0168365 10.5754527-.6698498-1.4945674-1.8736553-1.5102616-5.6378024-7.5935614-6.1501112m24.4458351 6.6167211c5.6438631 1.583828 9.3657947.1094369 9.8981891-1.0270228.604829-1.2927982-.8414487-5.2806294-6.9199195-5.7929382-3.5710262-.3042585-7.0828974.9584745-6.8607646 1.1761456.5432595.5459818 2.0197183 4.8176272 3.882495 5.6438154" fill="#d5232a"/></g></svg>