<svg viewBox="0 0 576 162" xmlns="http://www.w3.org/2000/svg"><path d="m565.3 91.3c-4.3-3.3-9.5-4.7-14.6-6.1l-.6-.1c-5.3-1.5-8.4-2.9-10.4-4.6-2.1-1.8-3.1-4.1-3.2-7.6-.1-1.6.2-3.1.7-4.5s1.3-2.6 2.3-3.7c1.1-1.2 2.5-2.1 4.2-2.8s3.7-1 5.8-1c1.7-.1 3.5.2 5.1.8 1.5.5 2.8 1.3 3.8 2.4 1 1 1.8 2.2 2.3 3.6.6 1.5.9 3.2.9 5.2l.1 3.4h9.8v-3.5c-.1-6.3-2.3-11.6-6.3-15.5-4-3.8-9.4-5.9-15.9-6-5.9 0-11.4 1.9-15.4 5.2-4.8 4-7.3 9.7-7.3 16.7.2 6.7 2.4 11.5 6.9 15.1 4 3.2 9.6 5 15 6.6 5.7 1.3 9.4 2.9 11.8 5.3 2.2 2.2 3.2 5.1 3.3 9.2v.5c0 1.9-.3 3.8-1 5.5s-1.6 3.2-2.9 4.5-2.8 2.4-4.6 3.1-3.8 1.1-5.9 1.1c-4.5 0-8.4-1.4-11.1-4.1s-4.2-6.4-4.3-10.9l-.1-3.4-9.7.1-.2 4.4c0 2.9.5 5.8 1.5 8.4s2.6 5 4.5 7.2c2.4 2.5 5.3 4.6 8.7 5.9 3.3 1.4 6.9 2.1 10.6 2.1 3.4 0 6.7-.7 9.8-2s5.8-3.2 8.1-5.6c2.2-2.3 3.9-5.1 5-8 1.1-3 1.5-6.1 1.3-9.4-.2-8-2.8-13.7-8-17.5m-42.2-78.6h-12.8l10.4 7.5-3.9 12.2 10.3-7.5 10.3 7.5-3.9-12.2 10.3-7.5h-12.8l-3.9-12.1zm-38.5 103.2-25.8-64.7h-10.7l2.8 7c.2.6 7.3 18.6 14.4 36.4l13.7 34.4-14.2 32.4h11l44.4-103.2 2.9-7.1h-11zm-97.6-46.1c3.7-3.3 7-5.5 10.5-6.9s7.3-2.1 12.3-2.1c5.6 0 11.4 1.6 16.3 4.6 5.7 3.5 9.9 8.6 12.1 14.9l.8 2.3h10.6l-1.6-4.6c-3.1-8.9-9-16.1-16.9-20.9-6.5-3.8-14.2-6-21.8-6-11.3 0-21.7 4.2-29.3 11.8s-11.8 18.1-11.8 29.4c0 10.5 3.9 20.7 10.7 28.1 7.7 8.4 18.5 12.9 31.2 12.9 8.5 0 16.5-2.5 23.3-7.1 6.7-4.7 11.8-11.2 14.6-19l1.7-4.6h-10.7l-.8 2.3c-1.6 4.7-5.1 9.3-9.7 12.7-5.4 4-12 6.1-19.1 6.1-4.2 0-8.2-.8-12-2.3s-7.1-3.7-10-6.5c-3-2.9-5.3-6.3-6.9-10.2s-2.4-8.2-2.4-12.6c0-4.3.9-8.8 2.5-12.8 1.6-3.8 3.8-7.1 6.4-9.5m-38.3 27.8c-.3 2-.8 3.9-1.5 5.7-2.2 6.3-6.1 11.5-11.1 15.1-5.1 3.6-11.3 5.5-17.9 5.5-9.6 0-17.8-3.4-23.5-9.8-5.1-5.7-8.1-13.6-8.2-21.8 0-8.7 3.2-16.7 8.9-22.5 5.8-5.8 13.7-9 22.4-9 6.4 0 12.6 1.8 17.8 5.2 5.1 3.4 9.1 8.3 11.3 14 .7 1.7 1.3 3.5 1.6 5.4.4 1.9.6 4 .6 6.1s-.1 4.1-.4 6.1m-.1-46.4v13.5c-2.1-2.4-4.6-4.6-7.3-6.4-6.9-4.6-15-7.1-23.5-7.1-15.6 0-25.2 7.2-30.6 13.1-6.7 7.5-10.6 17.7-10.6 28s3.8 20.5 10.5 28c5.3 6 15 13.2 30.6 13.2 8.1 0 15.4-1.9 21.7-5.8 3.5-2.1 6.5-4.7 9.2-7.8v13.6h9.9v-82.3zm-90.9 8.1c-2.7-2.7-6-4.8-9.7-6.1-7.2-2.6-17-2.8-25.1.6-4.1 1.7-7.7 4.2-10.4 7.3-1.1 1.2-2.1 2.5-3 3.9-1-1.8-1.9-3.1-2.6-3.8-2.7-3.2-6.2-5.8-10.3-7.5-4-1.7-8.5-2.5-13.4-2.5-3.1 0-7.8.5-12.7 2.8-3.2 1.5-6.1 3.5-8.6 6.1v-8.8h-9.9v82.3h9.9v-46.3c0-4.5.5-8.3 1.5-11.5 1-3.1 2.4-5.8 4.6-8.2 1.6-2 3.8-3.8 6.5-5 2.8-1.3 5.8-1.9 8.6-1.7 3.9.1 7.2.8 10 2.1 2.7 1.2 5 3 6.8 5.3 1.7 2.2 2.7 4.2 3.4 6.5.9 2.9 1.3 6.4 1.3 11v47.7h9.8v-45.5c0-4.9.2-8.8.9-12 .7-2.8 1.9-5.2 4.1-8 1.8-2.4 4.4-4.2 7.6-5.5 5.8-2.3 12.7-2 17.5-.3 2.4.9 4.4 2.2 6.1 3.9 2.1 2.1 3.7 4.9 4.8 8.4 1.1 3.7 1.7 8.2 1.7 13.5v45.5h9.8v-45.5c0-6.3-.7-11.9-2.2-16.6-1.6-5-3.9-9-7-12.1" fill="#231f20"/><path d="m72.4.6-16.4 50.6h-53.6l43.4 31.5-16.4 50.6 42.9-31.3 43.2 31.5-16.5-50.9 43.2-31.4h-53.4z" fill="#e11a2b"/></svg>