<svg xmlns="http://www.w3.org/2000/svg" xmlns:xlink="http://www.w3.org/1999/xlink" viewBox="0 0 1314.7 914"><defs><style>.cls-1{fill:none;}.cls-2{fill:#c4c4c4;}.cls-3{fill:#616161;}.cls-4{fill:#aaa;}.cls-5{fill:#f5f5f5;}.cls-6{fill:#fff;}.cls-7{fill:#b3e4ff;}.cls-8{fill:#e0e0e0;}.cls-9{fill:#e3f6ff;}.cls-10{fill:#009925;}.cls-11{fill:#ffc105;}.cls-12{fill:#ffc49c;}.cls-13{fill:#ea4335;}.cls-14{fill:#68230e;}.cls-15{fill:#bf795e;}.cls-16{fill:#a46347;}.cls-17{clip-path:url(#clip-path);}.cls-18{fill:#1e8e3e;}.cls-19{fill:#ffabab;}.cls-20{clip-path:url(#clip-path-2);}.cls-21{clip-path:url(#clip-path-3);}.cls-22{fill:#493626;}.cls-23{clip-path:url(#clip-path-4);}.cls-24{fill:#fbbc04;}.cls-25{clip-path:url(#clip-path-5);}.cls-26{fill:#ea8600;}.cls-27{clip-path:url(#clip-path-6);}.cls-28{clip-path:url(#clip-path-7);}.cls-29{fill:#a50e0e;}.cls-30{clip-path:url(#clip-path-8);}.cls-31{clip-path:url(#clip-path-9);}.cls-32{fill:#f29900;}.cls-33{fill:#1a73e8;}.cls-34{clip-path:url(#clip-path-10);}.cls-35{clip-path:url(#clip-path-11);}.cls-36{fill:#0d3575;}.cls-37{clip-path:url(#clip-path-12);}.cls-38{clip-path:url(#clip-path-13);}.cls-39{opacity:0.58;}.cls-40{clip-path:url(#clip-path-14);}.cls-41{clip-path:url(#clip-path-15);}.cls-42{fill:#0d652d;}</style><clipPath id="clip-path"><path class="cls-1" d="M1003.79,256.37h32.79a8,8,0,0,0,5-1.92l14.11-11.59c7.78-6.4,17.19-10,26-10h6.81c7.33,0,12.3,5.11,11.94,12.27L1099.05,272c-.48,9.48-10.1,18.45-19.81,18.45h-57.65c-12.6,0-21.2-8.7-20.73-21l.41-10.75A2.64,2.64,0,0,1,1003.79,256.37Z"/></clipPath><clipPath id="clip-path-2"><polygon class="cls-1" points="876.24 828.25 849.07 811.81 866.23 779.28 898.05 797.87 904.84 824.32 893.4 841.84 876.24 828.25"/></clipPath><clipPath id="clip-path-3"><path class="cls-1" d="M58.16,756.77H35.78a3.46,3.46,0,0,0-3.44,3.77c1.21,13.11,7.88,55.93,43.28,56.81,26.08.65,31-20.26,31-20.26s1.51,17.67,10.78,32.55,2.37,31,2.37,31-16.17,1.72-17.24,13.58h31.69s4.31-13.58,8.4-20.26,4.1-25.66,4.1-25.66.65,3.88,32.55,4.75,42.47-30.18,42.47-30.18l-58-66-20.26,1.51s-9.27-18.11-25.23-20.26l-15.13-23.56a2.1,2.1,0,0,0-3.61.12L87.48,716.46s-8.41-2.8-14,6.47C71.05,726.92,58.16,756.77,58.16,756.77Z"/></clipPath><clipPath id="clip-path-4"><path class="cls-1" d="M94.52,583.19h28.11A15.22,15.22,0,0,0,134.1,578c8.34-9.55,25.63-29.23,29.62-32.78,5.3-4.71,14.72-6.77,14.72-6.77l22.48-39.27a3.62,3.62,0,0,1,6.68-.48l14.72,43s18.26,6.48,20.61,19.44,3.24,34.74,23.56,46.52,34.16,16.2,53.89,16.2H461.73c18,0,58,19.14,49.47,71.85s-15,56.84-7.36,74.8,18.26,12.66,12.08,31.8S500,851.17,500,851.17H462.32s4.42-15,22.38-12.37l10.31-35s-33-17.38-45.35-33.57-18-28.86-18-28.86h-197s-13.25,96.59-18,110.13-10,22.68-22.68,22.68H153.71s1.47-21.79,24.73-20.91c0,0,9.13-.59,9.13-4.71s-10.3-80.69-14.72-98.95,15.31-61.84,15.31-78.62-6.18-33.28-17.67-33.87-50.65,5.89-68.32-25C91.64,593.62,94.52,583.19,94.52,583.19Z"/></clipPath><clipPath id="clip-path-5"><path class="cls-1" d="M301,623.56v69.18s86.13.84,90.52-67.79a5.27,5.27,0,0,0-5.18-5.61l-80-1A5.26,5.26,0,0,0,301,623.56Z"/></clipPath><clipPath id="clip-path-6"><path class="cls-1" d="M127.78,694.64a3.78,3.78,0,0,1,3.77-3.89H166c4.15,0,8.85-4.43,15.49-9.68s8-7.2,16.05-7.2,26.56-3.59,39,6.09,17.15,32.37,32.64,42,26,8,44.27,8.58,41.77,0,59.75,0,48.69,12.72,52.57,54.5.55,63.08,11.34,68.89,20.2-5,20.2-5-1.66,24.89-20.48,24.89H243.73c-13,0-65.29,1.11-65.29-50.07,0-41.77,2.77-81.06-15.49-86.87C145.52,731.4,128.34,721.07,127.78,694.64Z"/></clipPath><clipPath id="clip-path-7"><path class="cls-1" d="M240.39,727.81l12.37,3.31a151.75,151.75,0,0,0,12.32-12.45,1,1,0,0,0-.11-1.4,41.85,41.85,0,0,1-6.1-6.42,1,1,0,0,0-1.54-.13C254,714.13,242.28,726.11,240.39,727.81Z"/></clipPath><clipPath id="clip-path-8"><path class="cls-1" d="M327.43,764.23a14.75,14.75,0,0,0-10.26,4c-5.12,4.84-13.09,12.05-14.2,12.84-1.55,1.11-13.4.66-16.79.66s-4,6.85-1.69,12.89,9.06,10.45,19.58,10.45,15.54-.59,19,3.76,23.56,54.4,24.95,57c0,0-6.54,3-8.42,6.4a1,1,0,0,0,.88,1.48H362V840.3s8.17,7,32.47,7c26.72,0,35.56-7,35.56-7s8.39,11.63,21.42,16.05l3.8,8-2.87,3.17s-9.66-.51-13.27,5.08a.9.9,0,0,0,.74,1.4h20l8.69-6.48s-.63-19.32-.63-23.66,9.13-11.64,5.52-32-17-22.09-27.76-22.09h-75a9.51,9.51,0,0,1-8.2-4.69l-7.95-13.51a14.73,14.73,0,0,0-12.59-7.26Z"/></clipPath><clipPath id="clip-path-9"><path class="cls-1" d="M723.81,185.36s-5.43,33.43-6.52,44.67,4.35,17.76,20.31,20.12l-5.1,17.74,16.13,8,27.74-7.25s16.49-45.13,22.47-62.89c5.6-16.63,3.55-36.64-29.88-45.76C737.35,151.34,727.8,168.86,723.81,185.36Z"/></clipPath><clipPath id="clip-path-10"><path class="cls-1" d="M733.05,173.09s-14.67,45.7-15.76,56.94,4.35,17.76,20.31,20.12l-5.1,17.74,16.13,8,27.74-7.25s16.49-45.13,22.47-62.89c5.6-16.63,15.81-55.63-17.62-64.75C749.61,132.35,737,156.6,733.05,173.09Z"/></clipPath><clipPath id="clip-path-11"><path class="cls-1" d="M636.62,436.46l-66.57,167.6a94.87,94.87,0,0,0-6,46.44l17.51,179,84.86-9L644.89,663.6a94.89,94.89,0,0,1,4.79-41.82l31.27-89L715.32,686a73.15,73.15,0,0,0,16.17,32l84.34,110.92a5.69,5.69,0,0,0,4.44,2c7.57-.18,29.08-2.46,42.83-21.51,13.58-18.79,13.76-33.4,13.3-38.45a5.68,5.68,0,0,0-1.38-3.2l-66.29-90.18a73.19,73.19,0,0,1-16.76-35L768.2,511.26s8.46-7.16,8.46-17.58-8.27-57.22-8.27-57.22Z"/></clipPath><clipPath id="clip-path-12"><ellipse class="cls-1" cx="861.57" cy="269.95" rx="17.13" ry="40.48" transform="translate(-35.44 167.25) rotate(-10.87)"/></clipPath><clipPath id="clip-path-13"><path class="cls-1" d="M924.45,213.69c-3-8.7-11-15.49-17.58-20.3-8.8-6.39-67.61-47.31-74.31-51.66s-14-10.33-24.11-11-29.18.54-38.43,0-12.87,1.09-15,2.9-11.24,9.6-15.59,15.95-.54,8.16,1.27,7.61,8.52-7.43,11.06-8,27.18-.55,37.33-.55,9.61-1.45,12.87.18,17,17.77,31.9,34.44S867,219.68,867,219.68l-14.21,10.25-3.89,2.8c-5.65,6.6-7.58,22.5-4.19,40.17A85.49,85.49,0,0,0,851.53,294c1.12-.79,13.36-9.42,27.89-20.54,11.82-9,25.15-19.72,35.24-29.17S927.47,222.39,924.45,213.69Z"/></clipPath><clipPath id="clip-path-14"><path class="cls-1" d="M644.45,837.14l-5.19-28.45a107,107,0,0,0-17,.5,103.18,103.18,0,0,0-20.41,4.2l5.69,27.87,1.74,8.52,37.18-1.43Z"/></clipPath><clipPath id="clip-path-15"><path class="cls-1" d="M1149.5,671.3c-11.38-47.25-53.93-84.5-104.67-84.5a107.69,107.69,0,0,0-105.16,84.5Z"/></clipPath></defs><g id="Dog_Walker_Screen" data-name="Dog Walker Screen"><path class="cls-2" d="M881.41,448.67,943.85,592c5.3,12.16-1.14,18.71-14.4,18.71L606.78,600.48a6.65,6.65,0,0,0,6.12-9.26L553.44,451.87Z"/><polygon class="cls-3" points="907.79 509.17 577.57 509.27 599.63 560.27 913.89 523.51 907.79 509.17"/><path class="cls-4" d="M452.12,600.48v14.17h602.67a14.17,14.17,0,0,0-14.17-14.17Z"/><path class="cls-2" d="M1139.57,510.06H311.31c-8.67,0-13.81-7-11.49-15.7L418.44,56.6c2.33-8.67,11.24-15.7,19.9-15.7H1266.6c8.67,0,13.81,7,11.49,15.7L1159.47,494.36C1157.14,503,1148.23,510.06,1139.57,510.06Z"/><path class="cls-5" d="M1133.72,486.74H318.88c-5.13,0-8.17-4.16-6.8-9.29L424.68,57.24c1.37-5.13,6.65-9.29,11.78-9.29H1251.3c5.13,0,8.17,4.16,6.8,9.29L1145.5,477.45C1144.13,482.58,1138.85,486.74,1133.72,486.74Z"/><rect class="cls-6" x="990.18" y="270.38" width="446.48" height="1" transform="translate(632.25 1369.97) rotate(-74.72)"/><path class="cls-7" d="M1102.93,472.91H775.73c-6.37,0-10.15-5.16-8.44-11.54L852.59,143c1.71-6.37,8.26-11.54,14.64-11.54h327.2c6.37,0,10.15,5.17,8.44,11.54l-85.3,318.37C1115.86,467.75,1109.31,472.91,1102.93,472.91Z"/><path class="cls-4" d="M716.54,472.74H352.33c-4.59,0-7.31-3.72-6.08-8.31l23.27-86.84c1.23-4.59,5.94-8.31,10.53-8.31H744.26c4.59,0,7.31,3.72,6.09,8.31l-23.28,86.84C725.85,469,721.13,472.74,716.54,472.74Z"/><path class="cls-8" d="M707.27,402.5H428.76c-.56,0-.88-.5-.74-1.12l1.69-7a1.44,1.44,0,0,1,1.27-1.12H709.49c.56,0,.89.5.74,1.12l-1.69,7A1.43,1.43,0,0,1,707.27,402.5Z"/><rect class="cls-2" x="425" y="418.72" width="277.09" height="1.21"/><rect class="cls-2" x="380.8" y="435.55" width="268.35" height="1.21"/><path class="cls-9" d="M1167.3,275.78,878.69,472.91h224.82c6.12,0,12.42-5,14.06-11.08Z"/><path class="cls-8" d="M748,340.82H388c-4.59,0-7.31-3.72-6.08-8.31l23.27-86.84c1.23-4.59,5.94-8.31,10.53-8.31h360c4.59,0,7.31,3.72,6.08,8.31l-23.27,86.84C757.31,337.1,752.6,340.82,748,340.82Z"/><path class="cls-4" d="M738.74,270.59H465.32c-.55,0-.88-.51-.73-1.13l1.68-7a1.44,1.44,0,0,1,1.27-1.13H741c.55,0,.88.51.73,1.13l-1.67,7A1.46,1.46,0,0,1,738.74,270.59Z"/><rect class="cls-2" x="460.21" y="286.81" width="273.34" height="1.21"/><rect class="cls-2" x="424.87" y="303.63" width="259.79" height="1.21"/><path class="cls-10" d="M717.94,326.1H663.89c-3.09,0-4.93-2.51-4.1-5.61h0a7.84,7.84,0,0,1,7.11-5.6H721c3.09,0,4.93,2.51,4.1,5.6h0A7.84,7.84,0,0,1,717.94,326.1Z"/><path class="cls-11" d="M686.14,458.91h-54c-3.1,0-4.94-2.51-4.11-5.61h0a7.85,7.85,0,0,1,7.11-5.6h54c3.1,0,4.94,2.51,4.11,5.6h0A7.84,7.84,0,0,1,686.14,458.91Z"/><path class="cls-12" d="M945.1,220.84s-10.85,41.77-13.25,53.4c-4.05,19.61,12.57,28.51,27.84,26.7l-3.11,11.62,48.71.07s21.89-63.5,28.56-80.7c7.32-18.86,7.83-44.77-18.95-47.52C984.07,181.24,955.77,197.91,945.1,220.84Z"/><path class="cls-13" d="M959.42,192.18c11.11-17.29,23.82-34.85,53.64-35.3,25.11-.38,39.8,20.5,33,45.78a54.63,54.63,0,0,1-3.39,9.23l-13.09,29.54s-11.12-30.9-24.84-34.89S959.42,192.18,959.42,192.18Z"/><path class="cls-14" d="M943.47,218.92a23,23,0,0,1,13.72-12.82c10.59-3.32,25.85-2.59,40.07,3.52,19,8.18,29.82,24.26,30.37,36.18,1.69-4.68,1.35-3.88,2.17-6.06,4.39-11.66-4.21-40.64-31.58-52.4s-57.44-8.87-67.16,6.44c-6.4,10.08-1.57,22.81,9.74,33.84Z"/><path class="cls-15" d="M978.35,204.22s-20.34-9-34.88.18c-12.89,8.14-13.8,19.78-11.27,25.19,2.4,5.13,9.53,11.63,31.89,7.09,13.51-2.75,27.47-16.77,27.47-16.77s-7.36,14.35,7.44,17.74c10.09,2.31,16-3.09,16-3.09s7.78-1,2.55,8.49l-3.22,5.86c-1.12,2.05-.49,4.16,1.43,4.81h0c1.93.65,4.47-.4,5.78-2.38l8-11.46s6.18-16.82-2.74-23.83c-7.53-5.92-16.65-4.37-16.65-4.37s-2.31-9.39-13.92-11.06A26.29,26.29,0,0,0,978.35,204.22Z"/><polygon class="cls-16" points="959.65 301.09 976.82 298.68 956.59 313.39 959.65 301.09"/><path class="cls-12" d="M1022.3,243.21s11-7,16.3-.9-11.51,28-25.9,25.08Z"/><path class="cls-15" d="M1018.28,268.09s-9.26,10.94-11,18.55,2.81,9.79,7,6.72c4.5-3.3,8.08-27.31,8.08-27.31Z"/><path class="cls-16" d="M1021.68,259a.48.48,0,0,1-.36-.16.49.49,0,0,1,0-.7l10.79-10.2a.5.5,0,1,1,.69.72L1022,258.84A.52.52,0,0,1,1021.68,259Z"/><path class="cls-5" d="M1061.09,376.17c5.29-37.25-16.09-65-50.1-65H943.63c-25,0-51.92,18.38-65.86,45L841.64,473h195.5Z"/><path class="cls-2" d="M1003.79,256.37h32.79a8,8,0,0,0,5-1.92l14.11-11.59c7.78-6.4,17.19-10,26-10h6.81c7.33,0,12.3,5.11,11.94,12.27L1099.05,272c-.48,9.48-10.1,18.45-19.81,18.45h-57.65c-12.6,0-21.2-8.7-20.73-21l.41-10.75A2.64,2.64,0,0,1,1003.79,256.37Z"/><path class="cls-8" d="M1004.09,328.06h0c-6.56,0-10.45-5.32-8.69-11.88L999.73,300c1.76-6.56,8.5-11.88,15.07-11.88h0c6.56,0,10.45,5.32,8.69,11.88l-4.33,16.18C1017.4,322.74,1010.66,328.06,1004.09,328.06Z"/><path class="cls-2" d="M1015.84,298.3s12-11.09,24.48-12,49.93,1.13,49.93,1.13,7.28,4.07-.72,37.34-10,78.74-38.12,81.46-30.7-4.53-34.79-9.51-12.18-33.94,14.3-68.56Z"/><path class="cls-4" d="M1105,247.39c.17-9.84-2.41-17.12-12.53-17.12-9.46,0-16.72,8-21.71,17.12-2.14,3.9-10.93,21.37-12.91,28.74-3.37,12.58,4.1,22.78,16.68,22.78s25.51-10.2,28.88-22.78C1105.44,268.49,1104.92,251.11,1105,247.39Z"/><path class="cls-8" d="M1020,357.84s-17.34-9.09-26.38,7.28a34.88,34.88,0,0,0-.21,33.41s-1.95,7.55-3.88,16.19c-2.54,11.32,11.88,8,13.9,1.61s5.75-18.67,5.75-18.67l11.13-40.4"/><path class="cls-12" d="M1007.58,324.29l19.84-9.24s11.83-13.2,13.53-15.31a15.08,15.08,0,0,1,6.76-5c2.64-.83,28.71-5.09,31.87-5.77,1.17-.25,3-.38,2.78,1.58-.1,1-1,3.92-4.82,5.47-2.41,1-20,3.79-23.61,6.18-.58.4-1.69,2.12.89,2s18.49-3.83,21.71-4.71c8.06-2.23,15.1-5.7,16.27-6,1.34-.34,3.19,1.06,3.11,3.32a8.42,8.42,0,0,1-2.62,5.54,4.82,4.82,0,0,1,2.81,4.87c-.38,3.24-4,6-4,6a3.61,3.61,0,0,1,2.33,4.52c-.85,3.47-4.35,5.24-4.35,5.24s2.5.47,2.69,2.38c.25,2.56-1.69,4.75-5.4,6.79s-19.73,8.53-24.15,9.88c-3.08.94-5.85.87-13,.57s-17.74-.95-19.79-1.17-23.78,22.39-23.78,22.39L961.4,359l16-14.54A120.87,120.87,0,0,1,1007.58,324.29Z"/><path class="cls-12" d="M1012.64,367.39s7.22-7.24,10.79-8.75,6.68-.15,11.62,1.66,13.65-2,13.65-2l4.61,33.19,24-15.87c7.74-5.11,11.61-14.23,8.94-21.05l-8-20.56s-46.73,4.08-51.17,5.44-11.69,4.22-13.08,6-5.8,10.41-6.74,14.48.46,11.77,5,11Z"/><path class="cls-16" d="M1018.49,343.86s5.32-6.34,10.4-7.84,20.46.75,20.46.75Z"/><g class="cls-17"><path d="M997.82,265s9.27.9,12.7-9.66-10.27-1.65-10.27-1.65Z"/></g><path class="cls-2" d="M1014.89,331.35h0c-7.18,0-11.44-5.82-9.52-13l4.75-17.69c1.92-7.18,9.29-13,16.47-13h0c7.17,0,11.43,5.81,9.51,13l-4.74,17.69C1029.44,325.53,1022.06,331.35,1014.89,331.35Z"/><path class="cls-2" d="M1033.45,360.08s-17.25-9.4-26.45,7.52a37.1,37.1,0,0,0-.51,34.56s-2,7.81-4,16.75c-2.64,11.7,11.81,8.3,13.89,1.66s5.93-19.31,5.93-19.31l11.5-41.79"/><path class="cls-4" d="M1050.07,404.6s-42.06-23.46-64.76,2.28c-21.73,24.66-4.27,44.53,15.2,50.5,0,0-1.23-11.14,5.75-14.32s28.47,1.3,42.44-5.46a35.22,35.22,0,0,0,15.74-15.51C1070.47,410.47,1067,399,1050.07,404.6Z"/><path class="cls-12" d="M845.3,391.76s-9.33,23.76-13.46,37.56c-4.87,16.27-3.93,27.56,5.53,30.89,21.92,7.69,50-12.94,50-12.94L898,379.48S860.6,370,845.3,391.76Z"/><path class="cls-5" d="M981.45,313.92s-54.48-6.11-80,1.11C889,318.57,876,328.71,869,342.35c-13.39,25.76-30.59,60.95-30.59,60.95L892,401.6Z"/><path class="cls-12" d="M870.42,399.73S980,342.64,989.83,334.85s17.72,27.81,17.72,27.81S960,401,921.27,429.21c-35.84,26.08-61.25,37.4-77.74,33-18.66-5-11.42-9.79-11.78-30.92C831.44,413.07,854.57,408.63,870.42,399.73Z"/><path class="cls-12" d="M1086.21,354.87s21.22,53.4,19.45,73.54-9.05,37.71-27.31,43.37c-16,5-27.88-7.16-31.31-20.51s1.66-92.93,1.66-92.93Z"/><path class="cls-4" d="M706.62,196.08H502.22c-7.14,0-11.38-5.79-9.47-12.94h0c1.92-7.14,9.26-12.93,16.4-12.93h204.4c7.14,0,11.38,5.79,9.47,12.93h0C721.1,190.29,713.76,196.08,706.62,196.08Z"/><ellipse class="cls-18" cx="467.54" cy="91.81" rx="12.45" ry="9.53" transform="translate(55.22 330.59) rotate(-41.18)"/><path class="cls-6" d="M1203.52,102.56h-688c-6,0-9.58-4.87-8-10.89h0c1.61-6,7.79-10.89,13.81-10.89h688c6,0,9.58,4.88,8,10.89h0C1215.72,97.69,1209.54,102.56,1203.52,102.56Z"/><rect class="cls-8" x="207.5" y="96.31" width="0.8" height="125.78" transform="translate(-51.61 194.16) rotate(-45.12)"/><rect class="cls-8" x="152.34" y="150.08" width="46.28" height="0.8"/><rect class="cls-8" x="244.18" y="84.9" width="52.62" height="0.8" transform="translate(26.28 229.53) rotate(-48.07)"/><rect class="cls-8" x="216.81" y="213.26" width="180.13" height="0.8" transform="translate(-48.78 329.14) rotate(-52.84)"/><rect class="cls-8" x="315.06" y="158.55" width="0.8" height="44.11"/><rect class="cls-8" x="237.18" y="322.43" width="0.8" height="42.62" transform="translate(-168.85 246.71) rotate(-41.92)"/><rect class="cls-8" x="252.06" y="44.58" width="0.8" height="531.99"/><path class="cls-19" d="M445.94,293.27H418.68a3,3,0,0,1-2.9-3.78L423.14,262a3,3,0,0,1,2.9-2.23H453.3a3,3,0,0,1,2.89,3.78L448.83,291A3,3,0,0,1,445.94,293.27Z"/><path class="cls-3" d="M410.67,426.18H383.41a3,3,0,0,1-2.9-3.78l7.36-27.47a3,3,0,0,1,2.9-2.22H418a3,3,0,0,1,2.9,3.77L413.57,424A3,3,0,0,1,410.67,426.18Z"/></g><g id="Dog_Walker" data-name="Dog Walker"><path class="cls-2" d="M1045,671.49a102.89,102.89,0,0,1,205.78,0Z"/><polygon class="cls-12" points="876.24 828.25 849.07 811.81 866.23 779.28 898.05 797.87 904.84 824.32 893.4 841.84 876.24 828.25"/><path class="cls-3" d="M895.63,795.51l-3.25,11.6a4,4,0,0,0,.29,2.85l4.42,8.53a1.39,1.39,0,0,1,.11,1l-1,3.94a1.36,1.36,0,0,1-2.29.59l-4.67-4.87a5.67,5.67,0,0,0-4.59-1.73l-17.91,1.49a5.69,5.69,0,0,0-4.32,8.74l3.13,4.92-9.29,25.38-24.31,1.52a13.22,13.22,0,0,0-8.83,4l-4.27,5.46a3.32,3.32,0,0,0,2.66,5.37l80.87-1,19.56-60.12a9.16,9.16,0,0,0-4.23-10.75l-16.36-9.26A3.9,3.9,0,0,0,895.63,795.51Z"/><g class="cls-20"><path class="cls-16" d="M851,824.68s12.73-1.74,22-16.79,8.4-26.33,8.4-26.33l-16.21-5.5s-28.07,41.67-26.62,42S851,824.68,851,824.68Z"/></g><path class="cls-8" d="M128.65,828.34,121.75,779,90.43,807.61a76.33,76.33,0,0,0,8.9,22c9.27,14.87,2.37,31,2.37,31s-16.16,1.72-17.24,13.58h31.69s4.31-13.58,8.4-20.26,4.1-25.66,4.1-25.66,0,.25.6.62"/><path class="cls-8" d="M77.63,721.5,90.5,695.64a1.9,1.9,0,0,1,3.3.14L106,722.64Z"/><path class="cls-2" d="M58.16,756.77H35.78a3.46,3.46,0,0,0-3.44,3.77c1.21,13.11,7.88,55.93,43.28,56.81,26.08.65,31-20.26,31-20.26s1.51,17.67,10.78,32.55,2.37,31,2.37,31-16.17,1.72-17.24,13.58h31.69s4.31-13.58,8.4-20.26,4.1-25.66,4.1-25.66.65,3.88,32.55,4.75,42.47-30.18,42.47-30.18l-33.46-66-44.79,1.51s-9.27-18.11-25.23-20.26l-15.13-23.56c-.86-1.34-2.31-1.16-3.61.12,0,0-2.78,2.38-7.46,11a53,53,0,0,0-4.62,10.76s-9.51-2.59-14,6.47C71.39,727.11,58.16,756.77,58.16,756.77Z"/><g class="cls-21"><path d="M30.7,766.63s-5.35,4.55.64,4.44,15.63-7,14-14.82-15.94.32-15.94.32Z"/><path class="cls-8" d="M27.83,775.78s21.5-6.77,32.4,10.6,26.5,25,40,20.32-9.71,17.67-9.71,17.67-60.67,7.36-63.32-6.77S27.83,775.78,27.83,775.78Z"/></g><path class="cls-3" d="M92.39,717.19l11.18.91a1,1,0,0,0,1-1.24L99.62,702a.94.94,0,0,0-1.68-.23A48.28,48.28,0,0,0,91.55,716,.93.93,0,0,0,92.39,717.19Z"/><path class="cls-4" d="M374.8,622.65h-4a22.74,22.74,0,0,0-45.47,0h-4a26.74,26.74,0,0,1,53.47,0Z"/><path class="cls-22" d="M546.25,748.1c-1.17-66.25-6.34-84.33-18.64-96.4a23.85,23.85,0,1,0-30.46,35.06c-1.71,3.78-2.73,6.27-2.73,6.27s6.72,56.84,16.37,74.5a19.32,19.32,0,0,0,7.32,8.06c15.82,12.34,37.43,8.48,46.69-1.58C564.8,774,546.59,767.84,546.25,748.1Z"/><path class="cls-22" d="M165.19,545.5l13-44.24a2.52,2.52,0,0,1,4.63-.5L205,541.08Z"/><path class="cls-16" d="M248.82,607.63c20.32,11.78,34.16,16.2,53.89,16.2H444.06c18,0,58,19.14,49.48,71.85S474,774.93,481.61,792.89s18.26,12.66,12.07,31.81-15.9,48.88-15.9,48.88H440.09s4.41-15,22.38-12.37l10.3-35s-33-17.38-45.35-33.57S414,741.33,414,741.33s-213.65-49.74-213.65-66.52S228.5,595.85,248.82,607.63Z"/><path class="cls-15" d="M94.52,583.19h28.39a14.58,14.58,0,0,0,11-5c8.28-9.47,25.8-29.42,29.81-33,5.3-4.71,14.72-6.77,14.72-6.77l22.48-39.27a3.62,3.62,0,0,1,6.68-.48l14.72,43s18.26,6.48,20.61,19.44,3.24,34.74,23.56,46.52,34.16,16.2,53.89,16.2H461.73c18,0,58,19.14,49.47,71.85s-19.58,79.25-11.92,97.21,18.26,12.66,12.07,31.81-16.08,49.36-16.08,49.36l-38.13.24s5-15.74,23-13.09l10.3-35s-33-17.38-45.35-33.57-13.4-51.27-13.4-51.27h-197s-13.25,96.59-18,110.13-10,22.68-22.68,22.68H153.71s1.47-21.79,24.73-20.91c0,0,9.13-.59,9.13-4.71s-10.3-80.69-14.72-98.95,15.31-61.84,15.31-78.62-6.18-33.28-17.67-33.87-50.65,5.89-68.32-25C91.64,593.62,94.52,583.19,94.52,583.19Z"/><g class="cls-23"><path d="M92.54,595.55s-6.4,5.44.76,5.31S112,592.49,110,583.16s-19,.38-19,.38Z"/><path class="cls-16" d="M170.49,637.08a149.31,149.31,0,0,0,17.08-6.77c7.07-3.54,24.44.59,15.31,41.81s-20.61,27.39-30.62,62.43S170.49,637.08,170.49,637.08Z"/><path class="cls-16" d="M260.9,743.83S294,746,332.46,731s100.15-18,99.23,10.31c-.72,22.31-5.15,9.89,4.13,23.59C448.05,783,363.38,792,360.28,791.09S260.9,743.83,260.9,743.83Z"/><path class="cls-22" d="M256.19,598.5s4.41,25,33.27,47.42c17.19,13.33,73.62,24.44,108.37,9.42s28-32.39,64.78-31.51-15.9-28.27-15.9-28.27Z"/></g><path class="cls-22" d="M184.39,536.74l13.84-24.86a1.2,1.2,0,0,1,2.14.09,48.74,48.74,0,0,1,3.27,26.28,1.21,1.21,0,0,1-1.24,1l-17-.75A1.2,1.2,0,0,1,184.39,536.74Z"/><path class="cls-24" d="M301,623.56v69.18s86.13.84,90.52-67.79a5.27,5.27,0,0,0-5.18-5.61l-80-1A5.26,5.26,0,0,0,301,623.56Z"/><g class="cls-25"><rect class="cls-26" x="289.61" y="605.23" width="109.55" height="36.44"/></g><path class="cls-4" d="M284.64,766l-3.32-2.23C301.59,733.54,299,693.28,299,692.88v-.13l-.59-71.23,4,0,.59,71.17C303.12,695.13,305.48,734.93,284.64,766Z"/><path class="cls-3" d="M127.78,694.64a3.78,3.78,0,0,1,3.77-3.89H166c4.15,0,8.85-4.43,15.49-9.68s8-7.2,16.05-7.2,26.56-3.59,39,6.09,17.15,32.37,32.64,42,26,8,44.27,8.58,41.77,0,59.75,0,48.69,12.72,52.57,54.5.55,63.08,11.34,68.89,20.2-5,20.2-5-1.66,24.89-20.48,24.89H243.73c-13,0-65.29,1.11-65.29-50.07,0-41.77,2.77-81.06-15.49-86.87C145.52,731.4,128.34,721.07,127.78,694.64Z"/><path class="cls-4" d="M187.06,676.68s6-3.64,6,7.15v143c0,18.45-3.21,47.45,23.15,47.45,0,0,12.81-.29,32.09-.29,0,0-12.08-1.77-12.08-38.87V706.8c0-34.37-5.53-35.11-10.94-35.2-6.74-.11-20.93-.38-30.64-.27C189.65,671.38,188.22,673.28,187.06,676.68Z"/><path class="cls-13" d="M240.39,727.81l12.37,3.31a151.75,151.75,0,0,0,12.32-12.45,1,1,0,0,0-.11-1.4,41.85,41.85,0,0,1-6.1-6.42,1,1,0,0,0-1.54-.13C254,714.13,242.28,726.11,240.39,727.81Z"/><g class="cls-27"><path d="M126.82,700.1s-5.35,4.55.64,4.45,15.63-7,14-14.83-15.95.32-15.95.32Z"/><rect class="cls-2" x="184.02" y="758.73" width="1" height="70.01"/><rect class="cls-2" x="256.02" y="836.25" width="1" height="47.71"/><rect class="cls-2" x="280.09" y="752.77" width="1" height="30.48"/><rect class="cls-2" x="337.95" y="750.34" width="1" height="116.61"/><rect class="cls-2" x="286.05" y="860.11" width="1" height="26.72"/><rect class="cls-2" x="269.49" y="799.15" width="1" height="64.93"/><rect class="cls-2" x="381.46" y="758.29" width="1" height="80.17"/><rect class="cls-2" x="368.65" y="822.34" width="1" height="56.54"/><rect class="cls-2" x="395.82" y="859.89" width="1" height="23.63"/><rect class="cls-2" x="248.73" y="747.47" width="1" height="26.28"/></g><rect class="cls-3" x="202.64" y="702.78" width="1" height="81.87"/><rect class="cls-3" x="224.87" y="800.4" width="1" height="39.75"/><rect class="cls-3" x="215.3" y="765.21" width="1" height="38.13"/><g class="cls-28"><path class="cls-29" d="M245.69,731.2l12.37,3.31a151.75,151.75,0,0,0,12.32-12.45,1,1,0,0,0-.1-1.4,42.31,42.31,0,0,1-6.11-6.42,1,1,0,0,0-1.54-.14C259.29,717.52,247.58,729.5,245.69,731.2Z"/></g><path class="cls-5" d="M465.15,796.06s10.38,1.55,14.14,26,8.39,39,21.42,41.92,16.12-1.55,16.12-1.55-2.13,11.55-13.76,11.55H459.7s-2.5-1.57-4.93-27.52S465.15,796.06,465.15,796.06Z"/><path class="cls-4" d="M337.87,865.92s-6.55,3-8.43,6.4a1,1,0,0,0,.88,1.48h21.53V840.3s8.17,7,32.47,7c26.72,0,35.56-7,35.56-7s8.39,11.63,21.42,16.05l3.8,8-2.87,3.17s-9.66-.51-13.27,5.08a.9.9,0,0,0,.74,1.4h20l8.69-6.48s-.63-19.32-.63-23.66,9.13-11.64,5.52-32-17-22.09-27.75-22.09h-75a9.51,9.51,0,0,1-8.2-4.69l-7.95-13.51C341.68,767.13,336.47,863.27,337.87,865.92Z"/><path class="cls-4" d="M337.87,865.92s-6.55,3-8.43,6.4a1,1,0,0,0,.88,1.48h26.91V840.3h69.13s8.32,11.63,18.11,13.18l.63,10.85-2.87,3.17s-9.66-.51-13.27,5.08a.9.9,0,0,0,.74,1.4h18.14a5.48,5.48,0,0,0,3.28-1.09l4.93-3.68a5.48,5.48,0,0,0,2.21-4.56c-.18-5.55-.54-17.51-.54-20.81,0-4.35,9.13-11.64,5.52-32s-17-22.09-27.75-22.09h-75a9.51,9.51,0,0,1-8.2-4.69l-7.95-13.51C341.68,767.13,336.47,863.27,337.87,865.92Z"/><path class="cls-2" d="M327.43,764.23a14.75,14.75,0,0,0-10.26,4c-5.12,4.84-13.09,12.05-14.2,12.84-1.55,1.11-13.4.66-16.79.66s-4,6.85-1.69,12.89,9.06,10.45,19.58,10.45,15.54-.59,19,3.76,23.56,54.4,24.95,57c0,0-6.54,3-8.42,6.4a1,1,0,0,0,.88,1.48H362V840.3s8.17,7,32.47,7c26.72,0,35.56-7,35.56-7s8.39,11.63,21.42,16.05l3.8,8-2.87,3.17s-9.66-.51-13.27,5.08a.9.9,0,0,0,.74,1.4h20l8.69-6.48s-.63-19.32-.63-23.66,9.13-11.64,5.52-32-17-22.09-27.76-22.09h-75a9.51,9.51,0,0,1-8.2-4.69l-7.95-13.51a14.73,14.73,0,0,0-12.59-7.26Z"/><g class="cls-30"><path d="M279.73,787s-4,3.4.48,3.32,11.67-5.24,10.47-11.07-11.91.24-11.91.24Z"/><path class="cls-5" d="M386.53,832.5c12.81-7.29,30.92-9.28,37.32-1.55S430,840.3,430,840.3s-22.31,17.38-44.62,13.4S362,840.3,362,840.3,367.62,843.25,386.53,832.5Z"/><path class="cls-4" d="M365.05,844.49,361.92,842c12.26-15.5,15.2-44.68,15.87-55.08A198.36,198.36,0,0,0,357.57,802c-15,12.89-22.82,24.59-22.71,33.84l-4,0c-.31-25,46.11-53.26,48.08-54.45l3.12-1.87-.08,3.63a169.51,169.51,0,0,1-2.43,22.93C376.61,823.14,371.74,836,365.05,844.49Z"/></g><path class="cls-5" d="M358.7,777.43c-2.41-9.61-6.83-16.71-16.71-16.71-9.23,0-14.22,7.82-16.71,16.71-1.07,3.81-5.08,20.86-5.08,28.05a22.23,22.23,0,0,0,44.46,0C364.66,798,359.61,781.06,358.7,777.43Z"/><path class="cls-4" d="M265.13,712.73a2,2,0,0,1-1.4-3.42L493.06,483.78a2,2,0,0,1,2.8,2.86L266.53,712.16A2,2,0,0,1,265.13,712.73Z"/><path class="cls-4" d="M319.61,617.91a2,2,0,0,1-1.25-3.56l173-138.76a2,2,0,0,1,2.5,3.12l-173,138.76A2,2,0,0,1,319.61,617.91Z"/><path class="cls-4" d="M378.21,784.88a2,2,0,0,1-1.86-2.75L497,483.84a2,2,0,0,1,3.7,1.5L380.06,783.63A2,2,0,0,1,378.21,784.88Z"/><circle class="cls-2" cx="319.61" cy="615.91" r="6.48"/><circle class="cls-2" cx="266.31" cy="710.44" r="6.48"/><circle class="cls-2" cx="377.33" cy="783.76" r="6.48"/><path class="cls-12" d="M638.07,348.37l-26.83,46.4s-77.58,54.38-84.83,59.09-32.29-2.78-39,3.08c-3.42,3-5.43,19.86-5.06,25.21s8.52,7.8,12.14,9.79,9.79,2.54,12,1.09a12.85,12.85,0,0,0,5.86,1.52c6.29.43,13.26-2.36,20.28-6.43,4.24-2.47,6-10.29,7.43-14,2.08-5.3,7.83-8,11.78-10,4.36-2.18,51-18,77.06-29.33,12.93-5.64,15.74-11.45,15.74-11.45l32.27-66.34Z"/><path class="cls-16" d="M508.23,491.93s-.63-2.89,5.85-5.3c1.09-.4,5.43-1.44,7.07-2.54,1-.66,5-4.75,5-4.75l-.39-1.71a.84.84,0,0,0-1.26-.52c-1.36.84-4.16,2.5-8.73,4.88-1.74.91-4.37,2-5.85,2.64a2.12,2.12,0,0,0-1.3,1.74C508.49,487.35,508.36,489,508.23,491.93Z"/><path class="cls-16" d="M652.08,353.25s11.07,14.32,3.69,42.43l21.59-38.31Z"/><path class="cls-12" d="M723.81,185.36s-5.43,33.43-6.52,44.67,4.35,17.76,20.31,20.12l-5.1,17.74,16.13,8,27.74-7.25s16.49-45.13,22.47-62.89c5.6-16.63,3.55-36.64-29.88-45.76C737.35,151.34,727.8,168.86,723.81,185.36Z"/><g class="cls-31"><path class="cls-3" d="M715.63,211.31s20.26,6.19,55.63,3.78l-4.55,30.48s-23.79,13.54-47.94,3.2C703,242,715.63,211.31,715.63,211.31Z"/><path class="cls-3" d="M756.87,217.76l-.07-.79c28-2.37,42.91-14.09,43.06-14.21l.5.62C800.21,203.5,785.16,215.38,756.87,217.76Z"/><path class="cls-3" d="M744.26,252a21.81,21.81,0,0,1-7-.91l.28-.75c.21.08,21.52,7.25,53-22.6l.55.58c-16.63,15.77-30.35,21.13-38.93,22.85A40.6,40.6,0,0,1,744.26,252Z"/></g><path class="cls-11" d="M778.62,261.44s-6.42,3.91-23.64,5.18-46.25-3.67-61.09,4.53c-22.37,12.37-55.82,77.22-55.82,77.22s19,10.74,33.89,11.24l-35.34,76.85H768.39s34.78-83.19,39.31-94.06,5.65-12.38,13.07-15.24c13.39-5.16,47.67-17.22,47.67-17.22L851,231.46s-31.32,14.78-36.39,16.95-13.72,4-18.45,4.78C783,255.44,778.62,261.44,778.62,261.44Z"/><ellipse class="cls-32" cx="861.57" cy="269.95" rx="17.13" ry="40.48" transform="translate(-35.44 167.25) rotate(-10.87)"/><path class="cls-33" d="M636.62,436.46l-66.57,167.6a94.87,94.87,0,0,0-6,46.44l17.51,179,84.86-9L644.89,663.6a94.89,94.89,0,0,1,4.79-41.82l31.27-89L715.32,686a73.15,73.15,0,0,0,16.17,32l84.34,110.92a5.69,5.69,0,0,0,4.44,2c7.57-.18,29.08-2.46,42.83-21.51,13.58-18.79,13.76-33.4,13.3-38.45a5.68,5.68,0,0,0-1.38-3.2l-66.29-90.18a73.19,73.19,0,0,1-16.76-35L768.2,511.26s8.46-7.16,8.46-17.58-8.27-57.22-8.27-57.22Z"/><g class="cls-34"><polygon class="cls-13" points="747.8 133.88 732.31 166.44 770.95 177.87 797.57 205.07 802.64 205.8 814.79 164.7 796.71 136.92 766.03 132.87 747.8 133.88"/></g><g class="cls-35"><path class="cls-36" d="M681.54,540.45c-.33-1.49-8.18-36.79-6.88-44.75s11.49-48.69,11.59-49.1l1,.25c-.1.41-10.29,41.16-11.57,49s6.79,44,6.87,44.38Z"/><path class="cls-36" d="M651.8,814.11c-.18-1.28-17.6-128.84-19.1-140.21l-.3-2.25c-1.52-11.29-3.4-25.33-.12-36.81,3.44-12,43.88-118.77,44.29-119.85l.94.35c-.41,1.08-40.84,107.78-44.27,119.78-3.22,11.27-1.35,25.2.15,36.39l.3,2.26c1.5,11.37,18.92,138.92,19.1,140.21Z"/><path class="cls-36" d="M720.88,465.25s2.73,31.39,14.33,35.59C755,508,778,490,778,490l-1.52-20.4Z"/><path class="cls-36" d="M883.56,805.32c-.81-.94-81.41-94.9-97.5-112.48S765.62,656.48,763.8,644c-1.72-11.79-24.94-145.79-25.18-147.15l1-.17c.23,1.35,23.46,135.37,25.18,147.18,1.8,12.39,6,30.89,22,48.35s96.71,111.57,97.52,112.51Z"/></g><ellipse class="cls-36" cx="623.98" cy="825.01" rx="42.67" ry="15.91" transform="translate(-83.97 70.82) rotate(-6.09)"/><path class="cls-2" d="M723,443.6s-8.65,13.5-.76,31.57,23.68,14,32.08,10.95,27-7.64,27-23.93-2.83-25.75-12.87-25.73H636.62l-2.38,6.07Z"/><path class="cls-5" d="M722.73,443.76s10.57-5.26,15.19,5c3,6.69,5.61,12.48,6.33,14.18s4.23,5.46,10.06,4.08c7.65-1.8,26.91-8.86,26.91-8.86s0-11.36-3.22-16.42c-2.37-3.69-4.41-5.17-9.47-5.25s-32.85,3.15-38.75,3.91S722.73,443.76,722.73,443.76Z"/><path class="cls-12" d="M530.45,452.25a7,7,0,0,0-3.82.74c-2.17,1.22-6.57,14.15-7.31,16.29s-1,3.84.79,5.35a6.7,6.7,0,0,0,4.12,1.44"/><path class="cls-14" d="M728.48,188.25a15,15,0,0,1,8.9-9.37c7.41-2.6,16.77-2.31,28.69,2.17,15.95,6,28.54,19.59,31.36,28.33a42.57,42.57,0,0,0,1.84-5.21c2.31-8.28-14.09-31.47-37-40.1s-45-6.5-49.17,4.73c-2.78,7.39,3.09,16.86,13.81,24.95Z"/><rect class="cls-32" x="656.96" y="335.76" width="52.68" height="1" transform="translate(74.55 793.86) rotate(-63.13)"/><path class="cls-4" d="M548.17,552.34a27.7,27.7,0,0,1-20.77-8.74c-7.24-7.58-11.92-19.78-13.89-36.28a133.52,133.52,0,0,1-.82-22.38,2,2,0,1,1,4,.26c0,.39-2.31,39,13.62,55.64a23.78,23.78,0,0,0,18.49,7.49c41.56-.83,87.46-106.82,87.92-107.89a2,2,0,0,1,3.68,1.57c-1.92,4.47-47.4,109.44-91.52,110.32Z"/><path class="cls-4" d="M554.85,533.87c-.61,0-1.22,0-1.83-.07-40.09-3.13-40.62-48.56-40.63-49a2,2,0,0,1,2-2h0a2,2,0,0,1,2,2,62.87,62.87,0,0,0,4.76,21.71c6.14,14.29,17,22.14,32.18,23.32,35.32,2.79,83-88.58,83.44-89.5a2,2,0,1,1,3.55,1.83C638.36,446,592.46,533.87,554.85,533.87Z"/><path class="cls-4" d="M557.43,520.17c-10.94,0-21.83-5.53-31.7-16.15a86.57,86.57,0,0,1-12.83-18,2,2,0,1,1,3.57-1.8c.18.35,17.74,34.66,44,31.83,36.73-4,75.92-75,76.31-75.73a2,2,0,1,1,3.51,1.91,302.36,302.36,0,0,1-24.78,37.12c-19.84,25.22-38.21,38.91-54.61,40.68A33.81,33.81,0,0,1,557.43,520.17Z"/><path class="cls-4" d="M642.89,446.82a6.08,6.08,0,0,1-4.54-2c-1.73-2-2.25-5.34.51-8.46a7.12,7.12,0,0,1,4.94-2.73,5.33,5.33,0,0,1,3.77,1.27,2,2,0,0,1-2.67,3c-.37-.3-1.39-.76-3,1.11-1,1.16-1.22,2.37-.51,3.17s2,1,3.52-.06a2,2,0,1,1,2.26,3.3A7.49,7.49,0,0,1,642.89,446.82Z"/><path class="cls-12" d="M789.94,207.16s7.71-5.94,13.55-.76S800.1,230,787.3,227.57Z"/><path class="cls-15" d="M744,174.25s-17.43-9.19-27-.72c-6.75,5.94-4.56,15.3,0,18.67,3.9,2.88,9.76,7.27,27.61,3.43,10.78-2.31,14.13-8.14,14.13-8.14s-3,12.12,10.29,15c9,1.95,12.78-2.6,12.78-2.6s6.33-.87,4.07,7.16L784.47,212a3.32,3.32,0,0,0,2.29,4.06h0a3.54,3.54,0,0,0,4.34-2l4.16-9.67s1.41-14.19-7.7-20.11a22.66,22.66,0,0,0-15-3.69,19.48,19.48,0,0,0-14.25-9.34C749,169.92,744,174.25,744,174.25Z"/><path class="cls-15" d="M790.77,227.9s-7.38,7.71-8.68,14,2.5,9.12,5.86,7.27c3.62-2,6.08-22.25,6.08-22.25Z"/><path class="cls-16" d="M756.6,250a88.84,88.84,0,0,1-19,.11L734.12,262Z"/><g class="cls-37"><ellipse class="cls-14" cx="848.55" cy="269.95" rx="17.13" ry="40.48" transform="translate(-35.67 164.79) rotate(-10.87)"/></g><path class="cls-16" d="M792.87,220.55a.45.45,0,0,1-.31-.11.49.49,0,0,1-.08-.7l6.8-8.61a.5.5,0,0,1,.7-.08.49.49,0,0,1,.08.7l-6.8,8.61A.47.47,0,0,1,792.87,220.55Z"/><path class="cls-12" d="M924.45,213.69c-3-8.7-11-15.49-17.58-20.3-8.8-6.39-67.61-47.31-74.31-51.66s-14-10.33-24.11-11-29.18.54-38.43,0-12.87,1.09-15,2.9-11.24,9.6-15.59,15.95-.54,8.16,1.27,7.61,8.52-7.43,11.06-8,27.18-.55,37.33-.55,9.61-1.45,12.87.18,17,17.77,31.9,34.44S867,219.68,867,219.68l-14.21,10.25a7.43,7.43,0,0,1,1.05-.3c9.29-1.78,20.27,14.7,24.51,36.81q.69,3.6,1.08,7.06c11.82-9,25.15-19.72,35.24-29.17S927.47,222.39,924.45,213.69Z"/><path class="cls-12" d="M853.83,229.63a7.43,7.43,0,0,0-1.05.3l-3.89,2.8c-5.65,6.6-7.58,22.5-4.19,40.17A85.49,85.49,0,0,0,851.53,294c1.12-.79,13.36-9.42,27.89-20.54q-.39-3.47-1.08-7.06C874.1,244.33,863.12,227.85,853.83,229.63Z"/><path class="cls-12" d="M924.45,213.69c-3-8.7-11-15.49-17.58-20.3-8.8-6.39-67.61-47.31-74.31-51.66s-14-10.33-24.11-11-29.18.54-38.43,0-12.87,1.09-15,2.9-11.24,9.6-15.59,15.95-.54,8.16,1.27,7.61,8.52-7.43,11.06-8,27.18-.55,37.33-.55,9.61-1.45,12.87.18,17,17.77,31.9,34.44S867,219.68,867,219.68l-14.21,10.25-3.89,2.8c-5.65,6.6-7.58,22.5-4.19,40.17A85.49,85.49,0,0,0,851.53,294c1.12-.79,13.36-9.42,27.89-20.54,11.82-9,25.15-19.72,35.24-29.17S927.47,222.39,924.45,213.69Z"/><polygon class="cls-16" points="866.99 219.68 875.86 212.89 851.52 202.89 866.99 219.68"/><g class="cls-38"><g class="cls-39"><path class="cls-16" d="M842,250.8s5.42,31.69,33.86,33.64c0,0-25.4,13-25.62,13.89s-12.8-16.28-12.15-28.21S842,250.8,842,250.8Z"/></g></g><path class="cls-36" d="M581.55,829.54c.68,6.34,11.29,10.74,26,11.72l-5.69-27.87C589.16,817.48,580.92,823.59,581.55,829.54Z"/><path class="cls-36" d="M666.41,820.49c-.7-6.51-11.83-11-27.15-11.8l5.19,28.45C658.08,833.06,667.07,826.68,666.41,820.49Z"/><path class="cls-12" d="M644.45,837.14l-5.19-28.45a107,107,0,0,0-17,.5,103.18,103.18,0,0,0-20.41,4.2l5.69,27.87,1.74,8.52,37.18-1.43Z"/><g class="cls-40"><polygon class="cls-16" points="596.01 827.58 649.54 822.95 639.13 797.48 597.74 806.16 596.01 827.58"/></g><path class="cls-3" d="M599.53,834l-19.89,19-46.4,8.69a14.22,14.22,0,0,0-10.35,7l-2.95,5.08h132.3a7.71,7.71,0,0,0,7.52-9.4l-5.62-25a4.88,4.88,0,0,0-4.76-3.81H637.11a4.84,4.84,0,0,0-3,1.06l-10.82,8.59h-8.32a3.3,3.3,0,0,1-3.21-4.08h0a7.34,7.34,0,0,0-4.53-8.58h0A7.35,7.35,0,0,0,599.53,834Z"/><path class="cls-32" d="M809.22,338.81l10.2-25.39L838,320.83S814.43,329.55,809.22,338.81Z"/><path class="cls-16" d="M485.37,466s-2.9,12-2.59,14.74,4.2,2.87,6.07,1.88c1.5-.8,4.36-2.6,4.36-2.6l-2.15-10.38Z"/><path class="cls-12" d="M485.65,463s-2.38,19.88-2.1,22.64,4.64,3.53,6.29,2.54c1.34-.8,3.87-2.6,3.87-2.6L495,465.87Z"/><path class="cls-16" d="M491.72,466.81s-4,16.51-3.64,19.27,4.54,3.59,6.4,2.59c1.51-.8,4.36-2.59,4.36-2.59l-.77-15Z"/><path class="cls-12" d="M491.67,466.31s-2.38,19.88-2.1,22.64,4.64,3.53,6.29,2.54c1.34-.8,3.87-2.59,3.87-2.59l1.32-19.72Z"/><path class="cls-16" d="M499,470.84s-3.95,16.51-3.64,19.27,4.53,3.59,6.4,2.59c1.5-.79,4.36-2.59,4.36-2.59l-.77-15Z"/><path class="cls-12" d="M499.08,469.29s-2.67,19.88-2.36,22.64,5.23,3.54,7.09,2.54c1.51-.8,4.36-2.59,4.36-2.59l1.5-19.71Z"/><rect class="cls-8" x="80.53" y="873.77" width="968.79" height="0.8"/><path class="cls-18" d="M1149.5,671.3c-11.38-47.25-53.93-84.5-104.67-84.5a107.69,107.69,0,0,0-105.16,84.5Z"/><g class="cls-41"><rect class="cls-42" x="986.96" y="611.94" width="2" height="72.23" transform="translate(-157.88 936.3) rotate(-47.38)"/><rect class="cls-42" x="1026.18" y="634.14" width="86.35" height="2" transform="translate(0.74 1271.53) rotate(-61.48)"/><rect class="cls-42" x="965.67" y="626.67" width="2" height="44.1" transform="translate(314.06 1612.77) rotate(-89.77)"/><rect class="cls-42" x="1035.39" y="581.38" width="2" height="76.33" transform="translate(-130.9 928.38) rotate(-45.69)"/><rect class="cls-42" x="1079.55" y="613.03" width="35.25" height="2" transform="translate(-70.48 147.75) rotate(-7.47)"/></g><rect class="cls-8" x="1022.42" y="799.87" width="108.84" height="0.8"/><rect class="cls-8" x="894.32" y="671.31" width="365.98" height="0.8"/><rect class="cls-8" x="698.9" y="825.69" width="73.79" height="0.8"/><path class="cls-18" d="M175.34,319.4s-3.61,23.83,24.56,31.05c0,0-1.78-16.57-9.81-22.51A71,71,0,0,0,175.34,319.4Z"/><path class="cls-18" d="M1256.91,483.2s-.33-13.48,11.78-19.45c11.39-5.61,15.18-8.76,15.18-8.76s.35,14-9.3,24.24C1266.85,487.4,1256.91,483.2,1256.91,483.2Z"/><circle class="cls-19" cx="288.27" cy="399.43" r="4.26"/><circle class="cls-19" cx="1274.3" cy="381.06" r="4.13"/><path class="cls-8" d="M1113.57,552.67a230,230,0,0,1-63.61-9.51l.25-.76c.77.25,77.5,25,128-6.45,25.2-15.69,38.46-39,51.29-61.53,13-22.94,26.55-46.65,52.59-61.33l.39.7c-25.84,14.56-38.69,37.13-52.28,61-12.88,22.63-26.19,46-51.56,61.82C1158.89,548.9,1135.2,552.67,1113.57,552.67Z"/><path class="cls-8" d="M193.49,416.63c-17.19-11.73-36.57-12.43-57.07-13.18-23.29-.85-47.36-1.73-71-18.56-25.59-18.24-31.94-42.77-32.76-60.15a96.44,96.44,0,0,1,4.39-33.65l.75.27a95.86,95.86,0,0,0-4.34,33.37c.82,17.19,7.11,41.47,32.43,59.51,23.42,16.69,47.37,17.56,70.54,18.41,20.62.75,40.11,1.46,57.49,13.32Z"/><path class="cls-8" d="M68.6,226.42c-4.31-36.62,21.53-65.08,21.79-65.37l.59.55c-.26.28-25.85,28.48-21.58,64.73Z"/><path class="cls-8" d="M1159.35,828.54c-.66,0-1,0-1,0l.06-.8c.34,0,34.53,1.84,75-34.11l.53.6C1197.13,826.86,1165.44,828.54,1159.35,828.54Z"/></g></svg>